<?xml version="1.0" encoding="UTF-8" standalone="no"?><svg xmlns="http://www.w3.org/2000/svg" xmlns:xlink="http://www.w3.org/1999/xlink" contentStyleType="text/css" height="287px" preserveAspectRatio="none" style="width:559px;height:287px;background:#FFFFFF;" version="1.1" viewBox="0 0 559 287" width="559px" zoomAndPan="magnify"><defs/><g><rect fill="#FFFFFF" height="196.6953" style="stroke:#181818;stroke-width:1.0;" width="10" x="32.5" y="46.2969"/><rect fill="#FFFFFF" height="117.4297" style="stroke:#181818;stroke-width:1.0;" width="10" x="333.5" y="67.4297"/><rect fill="#FFFFFF" height="22.1641" style="stroke:#181818;stroke-width:1.0;" width="10" x="472" y="135.6953"/><line style="stroke:#181818;stroke-width:0.5;stroke-dasharray:5.0,5.0;" x1="37" x2="37" y1="36.2969" y2="251.9922"/><line style="stroke:#181818;stroke-width:0.5;stroke-dasharray:5.0,5.0;" x1="338" x2="338" y1="36.2969" y2="251.9922"/><line style="stroke:#181818;stroke-width:0.5;stroke-dasharray:5.0,5.0;" x1="477" x2="477" y1="135.2109" y2="251.9922"/><rect fill="#E2E2F0" height="30.2969" rx="2.5" ry="2.5" style="stroke:#181818;stroke-width:0.5;" width="65" x="5" y="5"/><text fill="#000000" font-family="sans-serif" font-size="14" lengthAdjust="spacing" textLength="51" x="12" y="24.9951">Scripts</text><rect fill="#E2E2F0" height="30.2969" rx="2.5" ry="2.5" style="stroke:#181818;stroke-width:0.5;" width="65" x="5" y="250.9922"/><text fill="#000000" font-family="sans-serif" font-size="14" lengthAdjust="spacing" textLength="51" x="12" y="270.9873">Scripts</text><rect fill="#E2E2F0" height="30.2969" rx="2.5" ry="2.5" style="stroke:#181818;stroke-width:0.5;" width="105" x="286" y="5"/><text fill="#000000" font-family="sans-serif" font-size="14" lengthAdjust="spacing" textLength="91" x="293" y="24.9951">energyusage</text><rect fill="#E2E2F0" height="30.2969" rx="2.5" ry="2.5" style="stroke:#181818;stroke-width:0.5;" width="105" x="286" y="250.9922"/><text fill="#000000" font-family="sans-serif" font-size="14" lengthAdjust="spacing" textLength="91" x="293" y="270.9873">energyusage</text><rect fill="#E2E2F0" height="30.2969" rx="2.5" ry="2.5" style="stroke:#181818;stroke-width:0.5;" width="152" x="401" y="250.9922"/><text fill="#000000" font-family="sans-serif" font-size="14" lengthAdjust="spacing" textLength="138" x="408" y="270.9873">Modelo de Previsão</text><rect fill="#FFFFFF" height="196.6953" style="stroke:#181818;stroke-width:1.0;" width="10" x="32.5" y="46.2969"/><rect fill="#FFFFFF" height="117.4297" style="stroke:#181818;stroke-width:1.0;" width="10" x="333.5" y="67.4297"/><rect fill="#FFFFFF" height="22.1641" style="stroke:#181818;stroke-width:1.0;" width="10" x="472" y="135.6953"/><polygon fill="#181818" points="321.5,63.4297,331.5,67.4297,321.5,71.4297,325.5,67.4297" style="stroke:#181818;stroke-width:1.0;"/><line style="stroke:#181818;stroke-width:1.0;" x1="42.5" x2="327.5" y1="67.4297" y2="67.4297"/><text fill="#000000" font-family="sans-serif" font-size="13" lengthAdjust="spacing" textLength="272" x="49.5" y="62.3638">evaluate(run_modelo_previsao, pdf=True)</text><polygon fill="#181818" points="53.5,92.5625,43.5,96.5625,53.5,100.5625,49.5,96.5625" style="stroke:#181818;stroke-width:1.0;"/><line style="stroke:#181818;stroke-width:1.0;" x1="47.5" x2="332.5" y1="96.5625" y2="96.5625"/><text fill="#000000" font-family="sans-serif" font-size="13" lengthAdjust="spacing" textLength="148" x="59.5" y="91.4966">run_modelo_previsao()</text><polygon fill="#181818" points="389,121.6953,399,125.6953,389,129.6953,393,125.6953" style="stroke:#181818;stroke-width:1.0;"/><line style="stroke:#181818;stroke-width:1.0;" x1="42.5" x2="395" y1="125.6953" y2="125.6953"/><text fill="#000000" font-family="sans-serif" font-size="13" lengthAdjust="spacing" textLength="21" x="49.5" y="120.6294">run</text><rect fill="#E2E2F0" height="30.2969" rx="2.5" ry="2.5" style="stroke:#181818;stroke-width:0.5;" width="152" x="401" y="104.5625"/><text fill="#000000" font-family="sans-serif" font-size="14" lengthAdjust="spacing" textLength="138" x="408" y="124.5576">Modelo de Previsão</text><line style="stroke:#181818;stroke-width:1.0;" x1="482" x2="524" y1="156.8594" y2="156.8594"/><line style="stroke:#181818;stroke-width:1.0;" x1="524" x2="524" y1="156.8594" y2="169.8594"/><line style="stroke:#181818;stroke-width:1.0;" x1="477" x2="524" y1="169.8594" y2="169.8594"/><polygon fill="#181818" points="487,165.8594,477,169.8594,487,173.8594,483,169.8594" style="stroke:#181818;stroke-width:1.0;"/><line style="stroke:#181818;stroke-width:1.0;" x1="343.5" x2="385.5" y1="183.8594" y2="183.8594"/><line style="stroke:#181818;stroke-width:1.0;" x1="385.5" x2="385.5" y1="183.8594" y2="196.8594"/><line style="stroke:#181818;stroke-width:1.0;" x1="338.5" x2="385.5" y1="196.8594" y2="196.8594"/><polygon fill="#181818" points="348.5,192.8594,338.5,196.8594,348.5,200.8594,344.5,196.8594" style="stroke:#181818;stroke-width:1.0;"/><line style="stroke:#181818;stroke-width:1.0;" x1="42.5" x2="84.5" y1="220.9922" y2="220.9922"/><line style="stroke:#181818;stroke-width:1.0;" x1="84.5" x2="84.5" y1="220.9922" y2="233.9922"/><line style="stroke:#181818;stroke-width:1.0;" x1="43.5" x2="84.5" y1="233.9922" y2="233.9922"/><polygon fill="#181818" points="53.5,229.9922,43.5,233.9922,53.5,237.9922,49.5,233.9922" style="stroke:#181818;stroke-width:1.0;"/><text fill="#000000" font-family="sans-serif" font-size="13" lengthAdjust="spacing" textLength="190" x="49.5" y="215.9263">mostra resultados na consola</text><!--MD5=[0ea1fddd8758b79da2fca415775bf3ed]
@startuml
participant "Scripts" as SC
participant "energyusage" as IPG
participant "Modelo de Previsão" as MP

activate SC

SC -> IPG: evaluate(run_modelo_previsao, pdf=True)
activate IPG

IPG -> SC : run_modelo_previsao()

SC -> MP**: run
activate MP
MP ->MP

deactivate MP

IPG -> IPG
deactivate IPG

SC -> SC: mostra resultados na consola
@enduml

PlantUML version 1.2022.6beta5(Unknown compile time)
(GPL source distribution)
Java Runtime: Java(TM) SE Runtime Environment
JVM: Java HotSpot(TM) 64-Bit Server VM
Default Encoding: UTF-8
Language: en
Country: US
--></g></svg>