<?xml version="1.0" encoding="UTF-8" standalone="no"?><svg xmlns="http://www.w3.org/2000/svg" xmlns:xlink="http://www.w3.org/1999/xlink" contentStyleType="text/css" height="336px" preserveAspectRatio="none" style="width:853px;height:336px;background:#FFFFFF;" version="1.1" viewBox="0 0 853 336" width="853px" zoomAndPan="magnify"><defs/><g><rect fill="#FFFFFF" height="245.9297" style="stroke:#181818;stroke-width:1.0;" width="10" x="47.5" y="46.2969"/><rect fill="#FFFFFF" height="110.3984" style="stroke:#181818;stroke-width:1.0;" width="10" x="311.5" y="96.5625"/><rect fill="#FFFFFF" height="139.5313" style="stroke:#181818;stroke-width:1.0;" width="10" x="539" y="67.4297"/><rect fill="#FFFFFF" height="81.2656" style="stroke:#181818;stroke-width:1.0;" width="10" x="766.5" y="125.6953"/><rect height="59.2656" style="stroke:#000000;stroke-width:1.5;fill:none;" width="274.5" x="10" y="140.6953"/><line style="stroke:#181818;stroke-width:0.5;fill:none;stroke-dasharray:5.0,5.0;" x1="52" x2="52" y1="36.2969" y2="301.2266"/><line style="stroke:#181818;stroke-width:0.5;fill:none;stroke-dasharray:5.0,5.0;" x1="316.5" x2="316.5" y1="36.2969" y2="301.2266"/><line style="stroke:#181818;stroke-width:0.5;fill:none;stroke-dasharray:5.0,5.0;" x1="543.5" x2="543.5" y1="36.2969" y2="301.2266"/><line style="stroke:#181818;stroke-width:0.5;fill:none;stroke-dasharray:5.0,5.0;" x1="771.5" x2="771.5" y1="36.2969" y2="301.2266"/><rect fill="#E2E2F0" height="30.2969" rx="2.5" ry="2.5" style="stroke:#181818;stroke-width:0.5;" width="65" x="20" y="5"/><text fill="#000000" font-family="sans-serif" font-size="14" lengthAdjust="spacing" textLength="51" x="27" y="24.9951">Scripts</text><rect fill="#E2E2F0" height="30.2969" rx="2.5" ry="2.5" style="stroke:#181818;stroke-width:0.5;" width="65" x="20" y="300.2266"/><text fill="#000000" font-family="sans-serif" font-size="14" lengthAdjust="spacing" textLength="51" x="27" y="320.2217">Scripts</text><rect fill="#E2E2F0" height="30.2969" rx="2.5" ry="2.5" style="stroke:#181818;stroke-width:0.5;" width="152" x="240.5" y="5"/><text fill="#000000" font-family="sans-serif" font-size="14" lengthAdjust="spacing" textLength="138" x="247.5" y="24.9951">Intel Power Gadget</text><rect fill="#E2E2F0" height="30.2969" rx="2.5" ry="2.5" style="stroke:#181818;stroke-width:0.5;" width="152" x="240.5" y="300.2266"/><text fill="#000000" font-family="sans-serif" font-size="14" lengthAdjust="spacing" textLength="138" x="247.5" y="320.2217">Intel Power Gadget</text><rect fill="#E2E2F0" height="30.2969" rx="2.5" ry="2.5" style="stroke:#181818;stroke-width:0.5;" width="283" x="402.5" y="5"/><text fill="#000000" font-family="sans-serif" font-size="14" lengthAdjust="spacing" textLength="269" x="409.5" y="24.9951">Nvidia System Management Interface</text><rect fill="#E2E2F0" height="30.2969" rx="2.5" ry="2.5" style="stroke:#181818;stroke-width:0.5;" width="283" x="402.5" y="300.2266"/><text fill="#000000" font-family="sans-serif" font-size="14" lengthAdjust="spacing" textLength="269" x="409.5" y="320.2217">Nvidia System Management Interface</text><rect fill="#E2E2F0" height="30.2969" rx="2.5" ry="2.5" style="stroke:#181818;stroke-width:0.5;" width="152" x="695.5" y="5"/><text fill="#000000" font-family="sans-serif" font-size="14" lengthAdjust="spacing" textLength="138" x="702.5" y="24.9951">Modelo de Previsão</text><rect fill="#E2E2F0" height="30.2969" rx="2.5" ry="2.5" style="stroke:#181818;stroke-width:0.5;" width="152" x="695.5" y="300.2266"/><text fill="#000000" font-family="sans-serif" font-size="14" lengthAdjust="spacing" textLength="138" x="702.5" y="320.2217">Modelo de Previsão</text><rect fill="#FFFFFF" height="245.9297" style="stroke:#181818;stroke-width:1.0;" width="10" x="47.5" y="46.2969"/><rect fill="#FFFFFF" height="110.3984" style="stroke:#181818;stroke-width:1.0;" width="10" x="311.5" y="96.5625"/><rect fill="#FFFFFF" height="139.5313" style="stroke:#181818;stroke-width:1.0;" width="10" x="539" y="67.4297"/><rect fill="#FFFFFF" height="81.2656" style="stroke:#181818;stroke-width:1.0;" width="10" x="766.5" y="125.6953"/><polygon fill="#181818" points="527,63.4297,537,67.4297,527,71.4297,531,67.4297" style="stroke:#181818;stroke-width:1.0;"/><line style="stroke:#181818;stroke-width:1.0;" x1="57.5" x2="533" y1="67.4297" y2="67.4297"/><text fill="#000000" font-family="sans-serif" font-size="13" lengthAdjust="spacing" textLength="143" x="64.5" y="62.3638">registar dados da GPU</text><polygon fill="#181818" points="299.5,92.5625,309.5,96.5625,299.5,100.5625,303.5,96.5625" style="stroke:#181818;stroke-width:1.0;"/><line style="stroke:#181818;stroke-width:1.0;" x1="57.5" x2="305.5" y1="96.5625" y2="96.5625"/><text fill="#000000" font-family="sans-serif" font-size="13" lengthAdjust="spacing" textLength="196" x="64.5" y="91.4966">registar dados do CPU e DRAM</text><polygon fill="#181818" points="754.5,121.6953,764.5,125.6953,754.5,129.6953,758.5,125.6953" style="stroke:#181818;stroke-width:1.0;"/><line style="stroke:#181818;stroke-width:1.0;" x1="321.5" x2="760.5" y1="125.6953" y2="125.6953"/><text fill="#000000" font-family="sans-serif" font-size="13" lengthAdjust="spacing" textLength="103" x="328.5" y="120.6294">iniciar execução</text><path d="M10,140.6953 L88,140.6953 L88,147.8281 L78,157.8281 L10,157.8281 L10,140.6953 " fill="#EEEEEE" style="stroke:#000000;stroke-width:1.5;"/><rect fill="none" height="59.2656" style="stroke:#000000;stroke-width:1.5;" width="274.5" x="10" y="140.6953"/><text fill="#000000" font-family="sans-serif" font-size="13" font-weight="bold" lengthAdjust="spacing" textLength="33" x="25" y="153.7622">loop</text><line style="stroke:#181818;stroke-width:1.0;" x1="57.5" x2="99.5" y1="178.9609" y2="178.9609"/><line style="stroke:#181818;stroke-width:1.0;" x1="99.5" x2="99.5" y1="178.9609" y2="191.9609"/><line style="stroke:#181818;stroke-width:1.0;" x1="58.5" x2="99.5" y1="191.9609" y2="191.9609"/><polygon fill="#181818" points="68.5,187.9609,58.5,191.9609,68.5,195.9609,64.5,191.9609" style="stroke:#181818;stroke-width:1.0;"/><text fill="#000000" font-family="sans-serif" font-size="13" lengthAdjust="spacing" textLength="208" x="64.5" y="173.895">registar uso do processo no CPU</text><line style="stroke:#181818;stroke-width:1.0;" x1="57.5" x2="99.5" y1="228.0938" y2="228.0938"/><line style="stroke:#181818;stroke-width:1.0;" x1="99.5" x2="99.5" y1="228.0938" y2="241.0938"/><line style="stroke:#181818;stroke-width:1.0;" x1="58.5" x2="99.5" y1="241.0938" y2="241.0938"/><polygon fill="#181818" points="68.5,237.0938,58.5,241.0938,68.5,245.0938,64.5,241.0938" style="stroke:#181818;stroke-width:1.0;"/><text fill="#000000" font-family="sans-serif" font-size="13" lengthAdjust="spacing" textLength="232" x="64.5" y="223.0278">registar dados de cada componente</text><line style="stroke:#181818;stroke-width:1.0;" x1="57.5" x2="99.5" y1="270.2266" y2="270.2266"/><line style="stroke:#181818;stroke-width:1.0;" x1="99.5" x2="99.5" y1="270.2266" y2="283.2266"/><line style="stroke:#181818;stroke-width:1.0;" x1="58.5" x2="99.5" y1="283.2266" y2="283.2266"/><polygon fill="#181818" points="68.5,279.2266,58.5,283.2266,68.5,287.2266,64.5,283.2266" style="stroke:#181818;stroke-width:1.0;"/><text fill="#000000" font-family="sans-serif" font-size="13" lengthAdjust="spacing" textLength="240" x="64.5" y="265.1606">estimar e registar energia consumida</text><!--MD5=[16cf454b445835cc32aed9ac8a22d9eb]
@startuml
participant "Scripts" as SC
participant "Intel Power Gadget" as IPG
participant "Nvidia System Management Interface" as SMI
participant "Modelo de Previsão" as MP

activate SC

SC -> SMI : registar dados da GPU
activate SMI

SC -> IPG: registar dados do CPU e DRAM
activate IPG

IPG -> MP: iniciar execução
activate MP

loop 
SC -> SC: registar uso do processo no CPU
end loop

deactivate MP
deactivate IPG
deactivate SMI


SC -> SC: registar dados de cada componente 
SC -> SC: estimar e registar energia consumida
@enduml

PlantUML version 1.2022.6beta5(Unknown compile time)
(GPL source distribution)
Java Runtime: Java(TM) SE Runtime Environment
JVM: Java HotSpot(TM) 64-Bit Server VM
Default Encoding: UTF-8
Language: en
Country: US
--></g></svg>