<?xml version="1.0" encoding="UTF-8" standalone="no"?><svg xmlns="http://www.w3.org/2000/svg" xmlns:xlink="http://www.w3.org/1999/xlink" contentStyleType="text/css" height="341px" preserveAspectRatio="none" style="width:547px;height:341px;background:#FFFFFF;" version="1.1" viewBox="0 0 547 341" width="547px" zoomAndPan="magnify"><defs/><g><!--MD5=[c2e703007e33c08ccf965f3a821dcd08]
cluster Sistema--><g id="cluster_Sistema"><rect height="113" rx="2.5" ry="2.5" style="stroke:#181818;stroke-width:1.0;fill:none;" width="159" x="175.0466" y="7"/><rect height="10" style="stroke:#181818;stroke-width:1.0;fill:none;" width="15" x="314.0466" y="12"/><rect height="2" style="stroke:#181818;stroke-width:1.0;fill:none;" width="4" x="312.0466" y="14"/><rect height="2" style="stroke:#181818;stroke-width:1.0;fill:none;" width="4" x="312.0466" y="18"/><text fill="#000000" font-family="sans-serif" font-size="14" font-weight="bold" lengthAdjust="spacing" textLength="66" x="221.5466" y="32.9951">Sistema</text></g><!--MD5=[fa92c0c292cdeae80e2f3763d35ba241]
entity SYS--><g id="elem_SYS"><rect fill="#F1F1F1" height="46.2969" rx="2.5" ry="2.5" style="stroke:#181818;stroke-width:0.5;" width="91" x="218.5466" y="50"/><rect fill="#F1F1F1" height="10" style="stroke:#181818;stroke-width:0.5;" width="15" x="289.5466" y="55"/><rect fill="#F1F1F1" height="2" style="stroke:#181818;stroke-width:0.5;" width="4" x="287.5466" y="57"/><rect fill="#F1F1F1" height="2" style="stroke:#181818;stroke-width:0.5;" width="4" x="287.5466" y="61"/><text fill="#000000" font-family="sans-serif" font-size="14" lengthAdjust="spacing" textLength="51" x="233.5466" y="82.9951">Scripts</text></g><!--MD5=[d420a9cf64d6b545f3755253952b3c16]
entity IPG--><g id="elem_IPG"><ellipse cx="218.0466" cy="303" fill="#F1F1F1" rx="8" ry="8" style="stroke:#181818;stroke-width:0.5;"/><text fill="#000000" font-family="sans-serif" font-size="14" lengthAdjust="spacing" textLength="138" x="149.0466" y="332.9951">Intel Power Gadget</text></g><!--MD5=[1b6f34fe2510f2f714dae0aab426a88b]
entity NSMI--><g id="elem_NSMI"><ellipse cx="183.0466" cy="185" fill="#F1F1F1" rx="8" ry="8" style="stroke:#181818;stroke-width:0.5;"/><text fill="#000000" font-family="sans-serif" font-size="14" lengthAdjust="spacing" textLength="275" x="45.5466" y="214.9951">NVIDIA System Management Interface</text></g><!--MD5=[4c4b63aa0119a823331c6b9916b4b18a]
entity MP--><g id="elem_MP"><rect fill="#F1F1F1" height="46.2969" rx="2.5" ry="2.5" style="stroke:#181818;stroke-width:0.5;" width="178" x="363.0466" y="162"/><rect fill="#F1F1F1" height="10" style="stroke:#181818;stroke-width:0.5;" width="15" x="521.0466" y="167"/><rect fill="#F1F1F1" height="2" style="stroke:#181818;stroke-width:0.5;" width="4" x="519.0466" y="169"/><rect fill="#F1F1F1" height="2" style="stroke:#181818;stroke-width:0.5;" width="4" x="519.0466" y="173"/><text fill="#000000" font-family="sans-serif" font-size="14" lengthAdjust="spacing" textLength="138" x="378.0466" y="194.9951">Modelo de Previsão</text></g><!--MD5=[87227d3de49847331e0161642ba24602]
link Sistema to MP--><g id="link_Sistema_MP"><path d="M190.6258,120.2559 C190.8085,120.655 190.9956,121.0521 191.187,121.4468 C191.5697,122.2361 191.9699,123.0161 192.3882,123.7849 C193.2248,125.3224 194.1341,126.8149 195.1223,128.2473 C197.0986,131.112 199.3902,133.7365 202.0466,136 C226.6376,156.954 314.3716,149.641 346.0466,156 C354.7246,157.742 363.7466,159.775 372.7026,161.936 " fill="none" id="Sistema-MP" style="stroke:#181818;stroke-width:1.0;"/></g><!--MD5=[3c452eb6eb5c54c697bb968dd4338a4f]
link MP to IPG--><g id="link_MP_IPG"><path d="M407.4826,208.092 C350.7276,236.2263 256.4836,282.9457 227.0876,297.5182 " fill="none" id="MP-IPG" style="stroke:#181818;stroke-width:1.0;"/></g><!--MD5=[0c3cd1c150f43839693f7007a453643c]
link Sistema to IPG--><g id="link_Sistema_IPG"><path d="M174.8186,75.1396 C174.6914,75.1595 174.5628,75.1797 174.4329,75.2001 C174.1732,75.2411 173.9082,75.2832 173.6381,75.3265 C172.5577,75.4997 171.3951,75.6921 170.156,75.9049 C167.678,76.3305 164.8943,76.8379 161.8513,77.437 C149.679,79.8336 133.3558,83.6986 115.8382,89.6745 C80.8028,101.6263 40.989,122.0215 20.0467,156 C6.5214,177.944 6,192.386 20.0467,214 C60.705,276.5635 157.2236,295.0064 198.6326,300.1401 " fill="none" id="Sistema-IPG" style="stroke:#181818;stroke-width:1.0;stroke-dasharray:1.0,3.0;"/><path d="M206.6284,292.5163 A9,9 0 0 0 204.7678 309.3281" fill="none" style="stroke:#181818;stroke-width:1.5;"/><rect fill="#FFFFFF" height="10" style="stroke:#181818;stroke-width:1.5;" width="10" x="169.8186" y="70.1396"/></g><!--MD5=[c5eead0968757ea9e2005a45e219e9bd]
link Sistema to NSMI--><g id="link_Sistema_NSMI"><path d="M183.0466,120.2609 C183.0466,121.4951 183.0466,122.7352 183.0466,123.9788 C183.0466,128.9532 183.0466,133.9829 183.0466,138.9032 C183.0466,148.7438 183.0466,158.147 183.0466,165.796 " fill="none" id="Sistema-NSMI" style="stroke:#181818;stroke-width:1.0;stroke-dasharray:1.0,3.0;"/><path d="M191.5038,172.8948 A9,9 0 0 0 174.5894 172.8948" fill="none" style="stroke:#181818;stroke-width:1.5;"/><rect fill="#FFFFFF" height="10" style="stroke:#181818;stroke-width:1.5;" width="10" x="178.0466" y="115.2609"/></g><!--MD5=[bc56cc2d2d12d90eeb3d0dd822ae6b73]
@startuml
component Sistema{
    component "Scripts" as SYS
    
}

interface "Intel Power Gadget" as IPG
interface "NVIDIA System Management Interface" as NSMI
component "Modelo de Previsão" as MP

Sistema - - MP
MP - - IPG
Sistema #~~( IPG
Sistema #~~( NSMI
@enduml

PlantUML version 1.2022.6beta5(Unknown compile time)
(GPL source distribution)
Java Runtime: Java(TM) SE Runtime Environment
JVM: Java HotSpot(TM) 64-Bit Server VM
Default Encoding: UTF-8
Language: en
Country: US
--></g></svg>