<?xml version="1.0" encoding="UTF-8" standalone="no"?><svg xmlns="http://www.w3.org/2000/svg" xmlns:xlink="http://www.w3.org/1999/xlink" contentStyleType="text/css" height="383px" preserveAspectRatio="none" style="width:246px;height:383px;background:#FFFFFF;" version="1.1" viewBox="0 0 246 383" width="246px" zoomAndPan="magnify"><defs/><g><!--MD5=[3dd69bb3697220fad5d33898126635a8]
cluster Server@GECAD--><g id="cluster_Server@GECAD"><polygon points="16,167,26,157,226,157,226,356,216,366,16,366,16,167" style="stroke:#181818;stroke-width:1.0;fill:none;"/><line style="stroke:#181818;stroke-width:1.0;fill:none;" x1="216" x2="226" y1="167" y2="157"/><line style="stroke:#181818;stroke-width:1.0;fill:none;" x1="16" x2="216" y1="167" y2="167"/><line style="stroke:#181818;stroke-width:1.0;fill:none;" x1="216" x2="216" y1="167" y2="366"/><text fill="#000000" font-family="sans-serif" font-size="14" font-weight="bold" lengthAdjust="spacing" textLength="118" x="58" y="182.9951">Server@GECAD</text></g><!--MD5=[0763bb05effc20119de164ff60cd4364]
cluster Arduino@GECAD--><g id="cluster_Arduino@GECAD"><polygon points="23,16,33,6,229,6,229,98,219,108,23,108,23,16" style="stroke:#181818;stroke-width:1.0;fill:none;"/><line style="stroke:#181818;stroke-width:1.0;fill:none;" x1="219" x2="229" y1="16" y2="6"/><line style="stroke:#181818;stroke-width:1.0;fill:none;" x1="23" x2="219" y1="16" y2="16"/><line style="stroke:#181818;stroke-width:1.0;fill:none;" x1="219" x2="219" y1="16" y2="108"/><text fill="#000000" font-family="sans-serif" font-size="14" font-weight="bold" lengthAdjust="spacing" textLength="130" x="57" y="31.9951">Arduino@GECAD</text></g><!--MD5=[fa92c0c292cdeae80e2f3763d35ba241]
entity SYS--><g id="elem_SYS"><rect fill="#F1F1F1" height="46.2969" rx="2.5" ry="2.5" style="stroke:#181818;stroke-width:0.5;" width="91" x="75.5" y="197"/><rect fill="#F1F1F1" height="10" style="stroke:#181818;stroke-width:0.5;" width="15" x="146.5" y="202"/><rect fill="#F1F1F1" height="2" style="stroke:#181818;stroke-width:0.5;" width="4" x="144.5" y="204"/><rect fill="#F1F1F1" height="2" style="stroke:#181818;stroke-width:0.5;" width="4" x="144.5" y="208"/><text fill="#000000" font-family="sans-serif" font-size="14" lengthAdjust="spacing" textLength="51" x="90.5" y="229.9951">Scripts</text></g><!--MD5=[4c4b63aa0119a823331c6b9916b4b18a]
entity MP--><g id="elem_MP"><rect fill="#F1F1F1" height="46.2969" rx="2.5" ry="2.5" style="stroke:#181818;stroke-width:0.5;" width="178" x="32" y="304"/><rect fill="#F1F1F1" height="10" style="stroke:#181818;stroke-width:0.5;" width="15" x="190" y="309"/><rect fill="#F1F1F1" height="2" style="stroke:#181818;stroke-width:0.5;" width="4" x="188" y="311"/><rect fill="#F1F1F1" height="2" style="stroke:#181818;stroke-width:0.5;" width="4" x="188" y="315"/><text fill="#000000" font-family="sans-serif" font-size="14" lengthAdjust="spacing" textLength="138" x="47" y="336.9951">Modelo de Previsão</text></g><!--MD5=[7a9efd6dce1686dfedf9725ce91e4c52]
entity ARD--><g id="elem_ARD"><rect fill="#F1F1F1" height="46.2969" rx="2.5" ry="2.5" style="stroke:#181818;stroke-width:0.5;" width="160" x="41" y="46"/><rect fill="#F1F1F1" height="10" style="stroke:#181818;stroke-width:0.5;" width="15" x="181" y="51"/><rect fill="#F1F1F1" height="2" style="stroke:#181818;stroke-width:0.5;" width="4" x="179" y="53"/><rect fill="#F1F1F1" height="2" style="stroke:#181818;stroke-width:0.5;" width="4" x="179" y="57"/><text fill="#000000" font-family="sans-serif" font-size="14" lengthAdjust="spacing" textLength="120" x="56" y="78.9951">Script de Leitura</text></g><!--MD5=[aca8b14aa517e723e9a9db634f09ca49]
link ARD to SYS--><g id="link_ARD_SYS"><path d="M121,92.307 C121,120.396 121,168.379 121,196.541 " fill="none" id="ARD-SYS" style="stroke:#181818;stroke-width:1.0;"/><text fill="#000000" font-family="sans-serif" font-size="13" lengthAdjust="spacing" textLength="37" x="122" y="137.0669">http/s</text></g><!--MD5=[8ab9c8d9dde6dd83a7874a97d5b4c0dc]
link SYS to MP--><g id="link_SYS_MP"><path d="M121,243.011 C121,260.812 121,285.7674 121,303.6559 " fill="none" id="SYS-MP" style="stroke:#181818;stroke-width:1.0;"/></g><!--MD5=[a5c9678c7a77c44d9a1ae9d361aa6a94]
@startuml
node Server@GECAD{
    component "Scripts" as SYS
    component "Modelo de Previsão" as MP
}

node Arduino@GECAD{
    component "Script de Leitura" as ARD
}
ARD - - SYS: http/s
SYS - - MP
@enduml

PlantUML version 1.2022.6beta5(Unknown compile time)
(GPL source distribution)
Java Runtime: Java(TM) SE Runtime Environment
JVM: Java HotSpot(TM) 64-Bit Server VM
Default Encoding: UTF-8
Language: en
Country: US
--></g></svg>