<?xml version="1.0" encoding="UTF-8" standalone="no"?><svg xmlns="http://www.w3.org/2000/svg" xmlns:xlink="http://www.w3.org/1999/xlink" contentStyleType="text/css" height="439px" preserveAspectRatio="none" style="width:704px;height:439px;background:#FFFFFF;" version="1.1" viewBox="0 0 704 439" width="704px" zoomAndPan="magnify"><defs/><g><!--MD5=[c2e703007e33c08ccf965f3a821dcd08]
cluster Sistema--><g id="cluster_Sistema"><rect height="321" rx="2.5" ry="2.5" style="stroke:#181818;stroke-width:1.0;fill:none;" width="108" x="7" y="7"/><rect height="10" style="stroke:#181818;stroke-width:1.0;fill:none;" width="15" x="95" y="12"/><rect height="2" style="stroke:#181818;stroke-width:1.0;fill:none;" width="4" x="93" y="14"/><rect height="2" style="stroke:#181818;stroke-width:1.0;fill:none;" width="4" x="93" y="18"/><text fill="#000000" font-family="sans-serif" font-size="14" font-weight="bold" lengthAdjust="spacing" textLength="66" x="28" y="32.9951">Sistema</text></g><!--MD5=[a5838f1314d5668e01fb5c9896550072]
entity MAIN--><g id="elem_MAIN"><rect fill="#F1F1F1" height="46.2969" rx="2.5" ry="2.5" style="stroke:#181818;stroke-width:0.5;" width="75" x="23.5" y="154"/><rect fill="#F1F1F1" height="10" style="stroke:#181818;stroke-width:0.5;" width="15" x="78.5" y="159"/><rect fill="#F1F1F1" height="2" style="stroke:#181818;stroke-width:0.5;" width="4" x="76.5" y="161"/><rect fill="#F1F1F1" height="2" style="stroke:#181818;stroke-width:0.5;" width="4" x="76.5" y="165"/><text fill="#000000" font-family="sans-serif" font-size="14" lengthAdjust="spacing" textLength="35" x="38.5" y="186.9951">main</text></g><!--MD5=[f2ca4ca4fa8ea39b73ab20043eb8c9e6]
entity CMD--><g id="elem_CMD"><rect fill="#F1F1F1" height="46.2969" rx="2.5" ry="2.5" style="stroke:#181818;stroke-width:0.5;" width="71" x="27.5" y="42"/><rect fill="#F1F1F1" height="10" style="stroke:#181818;stroke-width:0.5;" width="15" x="78.5" y="47"/><rect fill="#F1F1F1" height="2" style="stroke:#181818;stroke-width:0.5;" width="4" x="76.5" y="49"/><rect fill="#F1F1F1" height="2" style="stroke:#181818;stroke-width:0.5;" width="4" x="76.5" y="53"/><text fill="#000000" font-family="sans-serif" font-size="14" lengthAdjust="spacing" textLength="31" x="42.5" y="74.9951">cmd</text></g><!--MD5=[31d2324c246c24b2e9aa2c0b8a92a244]
entity UTILS--><g id="elem_UTILS"><rect fill="#F1F1F1" height="46.2969" rx="2.5" ry="2.5" style="stroke:#181818;stroke-width:0.5;" width="70" x="26" y="266"/><rect fill="#F1F1F1" height="10" style="stroke:#181818;stroke-width:0.5;" width="15" x="76" y="271"/><rect fill="#F1F1F1" height="2" style="stroke:#181818;stroke-width:0.5;" width="4" x="74" y="273"/><rect fill="#F1F1F1" height="2" style="stroke:#181818;stroke-width:0.5;" width="4" x="74" y="277"/><text fill="#000000" font-family="sans-serif" font-size="14" lengthAdjust="spacing" textLength="30" x="41" y="298.9951">utils</text></g><!--MD5=[b643aff2f6de854ee098fa19746d9d7e]
entity MOD--><g id="elem_MOD"><rect fill="#F1F1F1" height="46.2969" rx="2.5" ry="2.5" style="stroke:#181818;stroke-width:0.5;" width="178" x="131" y="266"/><rect fill="#F1F1F1" height="10" style="stroke:#181818;stroke-width:0.5;" width="15" x="289" y="271"/><rect fill="#F1F1F1" height="2" style="stroke:#181818;stroke-width:0.5;" width="4" x="287" y="273"/><rect fill="#F1F1F1" height="2" style="stroke:#181818;stroke-width:0.5;" width="4" x="287" y="277"/><text fill="#000000" font-family="sans-serif" font-size="14" lengthAdjust="spacing" textLength="138" x="146" y="298.9951">Modelo de Previsão</text></g><!--MD5=[d420a9cf64d6b545f3755253952b3c16]
entity IPG--><g id="elem_IPG"><ellipse cx="291" cy="401" fill="#F1F1F1" rx="8" ry="8" style="stroke:#181818;stroke-width:0.5;"/><text fill="#000000" font-family="sans-serif" font-size="14" lengthAdjust="spacing" textLength="138" x="222" y="430.9951">Intel Power Gadget</text></g><!--MD5=[1b6f34fe2510f2f714dae0aab426a88b]
entity NSMI--><g id="elem_NSMI"><ellipse cx="560" cy="177" fill="#F1F1F1" rx="8" ry="8" style="stroke:#181818;stroke-width:0.5;"/><text fill="#000000" font-family="sans-serif" font-size="14" lengthAdjust="spacing" textLength="275" x="422.5" y="206.9951">NVIDIA System Management Interface</text></g><!--MD5=[f3b418a2cce9f0f833f57396098e203f]
link CMD to MAIN--><g id="link_CMD_MAIN"><path d="M62.5953,88.26 C62.2483,107.345 61.7509,134.698 61.4041,153.773 " fill="none" id="CMD-MAIN" style="stroke:#181818;stroke-width:1.0;"/></g><!--MD5=[bb5c6116936f8f452495300337b1648c]
link MAIN to UTILS--><g id="link_MAIN_UTILS"><path d="M61,200.26 C61,219.345 61,246.698 61,265.773 " fill="none" id="MAIN-UTILS" style="stroke:#181818;stroke-width:1.0;"/></g><!--MD5=[829421671b4182967411313926c632f7]
link MAIN to MOD--><g id="link_MAIN_MOD"><path d="M93.176,200.26 C120.853,219.407 160.56,246.878 188.144,265.961 " fill="none" id="MAIN-MOD" style="stroke:#181818;stroke-width:1.0;stroke-dasharray:1.0,3.0;"/></g><!--MD5=[36e64421bc1ef50305e4d6f1ebff041c]
link MOD to IPG--><g id="link_MOD_IPG"><path d="M234.368,312.26 C250.252,336.8691 275.01,375.2271 285.743,391.8556 " fill="none" id="MOD-IPG" style="stroke:#181818;stroke-width:1.0;stroke-dasharray:1.0,3.0;"/></g><!--MD5=[a0143e6f78977261c860a64774a310a4]
link CMD to IPG--><g id="link_CMD_IPG"><path d="M108.04,84.467 C170.595,112.895 281.238,173.922 327,266 C340.846,293.86 334.884,305.904 327,336 C322.418,353.4925 311.861,371.2487 303.358,383.6062 " fill="none" id="CMD-IPG" style="stroke:#181818;stroke-width:1.0;stroke-dasharray:1.0,3.0;"/><path d="M306.0515,394.3478 A9,9 0 0 0 292.3184 384.4736" fill="none" style="stroke:#181818;stroke-width:1.5;"/><rect fill="#FFFFFF" height="10" style="stroke:#181818;stroke-width:1.5;" width="10" x="93.802" y="75.347"/></g><!--MD5=[4e7711943d2eeed811798ada19d7132d]
link CMD to NSMI--><g id="link_CMD_NSMI"><path d="M108.615,76.096 C213.744,99.364 469.536,155.978 541.112,171.819 " fill="none" id="CMD-NSMI" style="stroke:#181818;stroke-width:1.0;stroke-dasharray:1.0,3.0;"/><path d="M549.7884,165.0784 A9,9 0 0 0 546.1327 181.5931" fill="none" style="stroke:#181818;stroke-width:1.5;"/><rect fill="#FFFFFF" height="10" style="stroke:#181818;stroke-width:1.5;" width="10" x="93.743" y="68.911"/></g><!--MD5=[a5e1f5f1a260d3773005e3849e6de567]
@startuml
component Sistema{
    component "main" as MAIN
    component "cmd" as CMD
    component "utils" as UTILS
}

component "Modelo de Previsão" as MOD

interface "Intel Power Gadget" as IPG
interface "NVIDIA System Management Interface" as NSMI

CMD - - MAIN
MAIN - - UTILS

MAIN ~~ MOD
MOD ~~ IPG
CMD #~~( IPG
CMD #~~( NSMI
@enduml

PlantUML version 1.2022.6beta5(Unknown compile time)
(GPL source distribution)
Java Runtime: Java(TM) SE Runtime Environment
JVM: Java HotSpot(TM) 64-Bit Server VM
Default Encoding: UTF-8
Language: en
Country: US
--></g></svg>