<?xml version="1.0" encoding="UTF-8" standalone="no"?><svg xmlns="http://www.w3.org/2000/svg" xmlns:xlink="http://www.w3.org/1999/xlink" contentStyleType="text/css" height="298px" preserveAspectRatio="none" style="width:547px;height:298px;background:#FFFFFF;" version="1.1" viewBox="0 0 547 298" width="547px" zoomAndPan="magnify"><defs/><g><!--MD5=[52ec6a8b74b13041fc2aa09119826c6e]
entity Sistema--><g id="elem_Sistema"><rect fill="#F1F1F1" height="46.2969" rx="2.5" ry="2.5" style="stroke:#181818;stroke-width:0.5;" width="98" x="134.0466" y="7"/><rect fill="#F1F1F1" height="10" style="stroke:#181818;stroke-width:0.5;" width="15" x="212.0466" y="12"/><rect fill="#F1F1F1" height="2" style="stroke:#181818;stroke-width:0.5;" width="4" x="210.0466" y="14"/><rect fill="#F1F1F1" height="2" style="stroke:#181818;stroke-width:0.5;" width="4" x="210.0466" y="18"/><text fill="#000000" font-family="sans-serif" font-size="14" lengthAdjust="spacing" textLength="58" x="149.0466" y="39.9951">Sistema</text></g><!--MD5=[d420a9cf64d6b545f3755253952b3c16]
entity IPG--><g id="elem_IPG"><ellipse cx="218.0466" cy="260" fill="#F1F1F1" rx="8" ry="8" style="stroke:#181818;stroke-width:0.5;"/><text fill="#000000" font-family="sans-serif" font-size="14" lengthAdjust="spacing" textLength="138" x="149.0466" y="289.9951">Intel Power Gadget</text></g><!--MD5=[1b6f34fe2510f2f714dae0aab426a88b]
entity NSMI--><g id="elem_NSMI"><ellipse cx="183.0466" cy="142" fill="#F1F1F1" rx="8" ry="8" style="stroke:#181818;stroke-width:0.5;"/><text fill="#000000" font-family="sans-serif" font-size="14" lengthAdjust="spacing" textLength="275" x="45.5466" y="171.9951">NVIDIA System Management Interface</text></g><!--MD5=[4c4b63aa0119a823331c6b9916b4b18a]
entity MP--><g id="elem_MP"><rect fill="#F1F1F1" height="46.2969" rx="2.5" ry="2.5" style="stroke:#181818;stroke-width:0.5;" width="178" x="363.0466" y="119"/><rect fill="#F1F1F1" height="10" style="stroke:#181818;stroke-width:0.5;" width="15" x="521.0466" y="124"/><rect fill="#F1F1F1" height="2" style="stroke:#181818;stroke-width:0.5;" width="4" x="519.0466" y="126"/><rect fill="#F1F1F1" height="2" style="stroke:#181818;stroke-width:0.5;" width="4" x="519.0466" y="130"/><text fill="#000000" font-family="sans-serif" font-size="14" lengthAdjust="spacing" textLength="138" x="378.0466" y="151.9951">Modelo de Previsão</text></g><!--MD5=[87227d3de49847331e0161642ba24602]
link Sistema to MP--><g id="link_Sistema_MP"><path d="M232.0726,51.048 C278.8986,70.196 349.3256,98.995 397.8106,118.822 " fill="none" id="Sistema-MP" style="stroke:#181818;stroke-width:1.0;"/></g><!--MD5=[3c452eb6eb5c54c697bb968dd4338a4f]
link MP to IPG--><g id="link_MP_IPG"><path d="M407.4826,165.092 C350.7276,193.2263 256.4836,239.9457 227.0876,254.5182 " fill="none" id="MP-IPG" style="stroke:#181818;stroke-width:1.0;"/></g><!--MD5=[0c3cd1c150f43839693f7007a453643c]
link Sistema to IPG--><g id="link_Sistema_IPG"><path d="M124.3366,43.905 C87.4502,55.377 42.704,76.239 20.0467,113 C6.5214,134.944 6,149.386 20.0467,171 C60.705,233.5635 157.2236,252.0064 198.6326,257.1401 " fill="none" id="Sistema-IPG" style="stroke:#181818;stroke-width:1.0;stroke-dasharray:1.0,3.0;"/><path d="M206.6284,249.5163 A9,9 0 0 0 204.7678 266.3281" fill="none" style="stroke:#181818;stroke-width:1.5;"/><rect fill="#FFFFFF" height="10" style="stroke:#181818;stroke-width:1.5;" width="10" x="129.0156" y="36.05"/></g><!--MD5=[c5eead0968757ea9e2005a45e219e9bd]
link Sistema to NSMI--><g id="link_Sistema_NSMI"><path d="M183.0466,63.386 C183.0466,82.708 183.0466,106.537 183.0466,122.656 " fill="none" id="Sistema-NSMI" style="stroke:#181818;stroke-width:1.0;stroke-dasharray:1.0,3.0;"/><path d="M191.5038,129.7778 A9,9 0 0 0 174.5894 129.7778" fill="none" style="stroke:#181818;stroke-width:1.5;"/><rect fill="#FFFFFF" height="10" style="stroke:#181818;stroke-width:1.5;" width="10" x="178.0466" y="48.26"/></g><!--MD5=[c6cf7bffc23ed4454fb74c6ce35ad6fe]
@startuml
component Sistema
interface "Intel Power Gadget" as IPG
interface "NVIDIA System Management Interface" as NSMI
component "Modelo de Previsão" as MP

Sistema - - MP
MP - - IPG
Sistema #~~( IPG
Sistema #~~( NSMI
@enduml

PlantUML version 1.2022.6beta5(Unknown compile time)
(GPL source distribution)
Java Runtime: Java(TM) SE Runtime Environment
JVM: Java HotSpot(TM) 64-Bit Server VM
Default Encoding: UTF-8
Language: en
Country: US
--></g></svg>