<?xml version="1.0" encoding="UTF-8" standalone="no"?><svg xmlns="http://www.w3.org/2000/svg" xmlns:xlink="http://www.w3.org/1999/xlink" contentStyleType="text/css" height="231px" preserveAspectRatio="none" style="width:807px;height:231px;background:#FFFFFF;" version="1.1" viewBox="0 0 807 231" width="807px" zoomAndPan="magnify"><defs/><g><!--MD5=[3dd69bb3697220fad5d33898126635a8]
cluster Server@GECAD--><g id="cluster_Server@GECAD"><polygon points="16,16,26,6,790,6,790,204,780,214,16,214,16,16" style="stroke:#181818;stroke-width:1.0;fill:none;"/><line style="stroke:#181818;stroke-width:1.0;fill:none;" x1="780" x2="790" y1="16" y2="6"/><line style="stroke:#181818;stroke-width:1.0;fill:none;" x1="16" x2="780" y1="16" y2="16"/><line style="stroke:#181818;stroke-width:1.0;fill:none;" x1="780" x2="780" y1="16" y2="214"/><text fill="#000000" font-family="sans-serif" font-size="14" font-weight="bold" lengthAdjust="spacing" textLength="118" x="340" y="31.9951">Server@GECAD</text></g><!--MD5=[52ec6a8b74b13041fc2aa09119826c6e]
entity Sistema--><g id="elem_Sistema"><polygon fill="#F1F1F1" points="285,56,295,46,383,46,383,82.2969,373,92.2969,285,92.2969,285,56" style="stroke:#181818;stroke-width:0.5;"/><line style="stroke:#181818;stroke-width:0.5;" x1="373" x2="383" y1="56" y2="46"/><line style="stroke:#181818;stroke-width:0.5;" x1="285" x2="373" y1="56" y2="56"/><line style="stroke:#181818;stroke-width:0.5;" x1="373" x2="373" y1="56" y2="92.2969"/><text fill="#000000" font-family="sans-serif" font-size="14" lengthAdjust="spacing" textLength="58" x="300" y="78.9951">Sistema</text></g><!--MD5=[4c4b63aa0119a823331c6b9916b4b18a]
entity MP--><g id="elem_MP"><polygon fill="#F1F1F1" points="32,162,42,152,210,152,210,188.2969,200,198.2969,32,198.2969,32,162" style="stroke:#181818;stroke-width:0.5;"/><line style="stroke:#181818;stroke-width:0.5;" x1="200" x2="210" y1="162" y2="152"/><line style="stroke:#181818;stroke-width:0.5;" x1="32" x2="200" y1="162" y2="162"/><line style="stroke:#181818;stroke-width:0.5;" x1="200" x2="200" y1="162" y2="198.2969"/><text fill="#000000" font-family="sans-serif" font-size="14" lengthAdjust="spacing" textLength="138" x="47" y="184.9951">Modelo de Previsão</text></g><!--MD5=[d420a9cf64d6b545f3755253952b3c16]
entity IPG--><g id="elem_IPG"><polygon fill="#F1F1F1" points="245,162,255,152,423,152,423,188.2969,413,198.2969,245,198.2969,245,162" style="stroke:#181818;stroke-width:0.5;"/><line style="stroke:#181818;stroke-width:0.5;" x1="413" x2="423" y1="162" y2="152"/><line style="stroke:#181818;stroke-width:0.5;" x1="245" x2="413" y1="162" y2="162"/><line style="stroke:#181818;stroke-width:0.5;" x1="413" x2="413" y1="162" y2="198.2969"/><text fill="#000000" font-family="sans-serif" font-size="14" lengthAdjust="spacing" textLength="138" x="260" y="184.9951">Intel Power Gadget</text></g><!--MD5=[1b6f34fe2510f2f714dae0aab426a88b]
entity NSMI--><g id="elem_NSMI"><polygon fill="#F1F1F1" points="458.5,162,468.5,152,773.5,152,773.5,188.2969,763.5,198.2969,458.5,198.2969,458.5,162" style="stroke:#181818;stroke-width:0.5;"/><line style="stroke:#181818;stroke-width:0.5;" x1="763.5" x2="773.5" y1="162" y2="152"/><line style="stroke:#181818;stroke-width:0.5;" x1="458.5" x2="763.5" y1="162" y2="162"/><line style="stroke:#181818;stroke-width:0.5;" x1="763.5" x2="763.5" y1="162" y2="198.2969"/><text fill="#000000" font-family="sans-serif" font-size="14" lengthAdjust="spacing" textLength="275" x="473.5" y="184.9951">NVIDIA System Management Interface</text></g><!--MD5=[87227d3de49847331e0161642ba24602]
link Sistema to MP--><g id="link_Sistema_MP"><path d="M288.828,92.056 C252.681,109.705 202.236,134.3353 166.107,151.9761 " fill="none" id="Sistema-MP" style="stroke:#181818;stroke-width:1.0;"/></g><!--MD5=[0c3cd1c150f43839693f7007a453643c]
link Sistema to IPG--><g id="link_Sistema_IPG"><path d="M334,92.056 C334,109.705 334,134.3353 334,151.9761 " fill="none" id="Sistema-IPG" style="stroke:#181818;stroke-width:1.0;"/></g><!--MD5=[c5eead0968757ea9e2005a45e219e9bd]
link Sistema to NSMI--><g id="link_Sistema_NSMI"><path d="M383.121,88.115 C431.25,105.865 504.678,132.9451 556.184,151.9403 " fill="none" id="Sistema-NSMI" style="stroke:#181818;stroke-width:1.0;"/></g><!--MD5=[ee057e9d11aefcf2c538025888ea1645]
@startuml
node Server@GECAD{
    node Sistema
    node "Modelo de Previsão" as MP
    node "Intel Power Gadget" as IPG
    node "NVIDIA System Management Interface" as NSMI
}
Sistema - - MP
Sistema - - IPG
Sistema - - NSMI
@enduml

PlantUML version 1.2022.6beta5(Unknown compile time)
(GPL source distribution)
Java Runtime: Java(TM) SE Runtime Environment
JVM: Java HotSpot(TM) 64-Bit Server VM
Default Encoding: UTF-8
Language: en
Country: US
--></g></svg>