<?xml version="1.0" encoding="UTF-8" standalone="no"?><svg xmlns="http://www.w3.org/2000/svg" xmlns:xlink="http://www.w3.org/1999/xlink" contentStyleType="text/css" height="222px" preserveAspectRatio="none" style="width:714px;height:222px;background:#FFFFFF;" version="1.1" viewBox="0 0 714 222" width="714px" zoomAndPan="magnify"><defs/><g><!--MD5=[99b31deea5d7419a569cd5090bf83263]
cluster System--><g id="cluster_System"><rect height="209" rx="2.5" ry="2.5" style="stroke:#181818;stroke-width:1.0;fill:none;" width="210" x="7" y="7"/><rect height="10" style="stroke:#181818;stroke-width:1.0;fill:none;" width="15" x="197" y="12"/><rect height="2" style="stroke:#181818;stroke-width:1.0;fill:none;" width="4" x="195" y="14"/><rect height="2" style="stroke:#181818;stroke-width:1.0;fill:none;" width="4" x="195" y="18"/><text fill="#000000" font-family="sans-serif" font-size="14" font-weight="bold" lengthAdjust="spacing" textLength="60" x="82" y="32.9951">System</text></g><!--MD5=[fa92c0c292cdeae80e2f3763d35ba241]
entity SYS--><g id="elem_SYS"><rect fill="#F1F1F1" height="46.2969" rx="2.5" ry="2.5" style="stroke:#181818;stroke-width:0.5;" width="98" x="103" y="42"/><rect fill="#F1F1F1" height="10" style="stroke:#181818;stroke-width:0.5;" width="15" x="181" y="47"/><rect fill="#F1F1F1" height="2" style="stroke:#181818;stroke-width:0.5;" width="4" x="179" y="49"/><rect fill="#F1F1F1" height="2" style="stroke:#181818;stroke-width:0.5;" width="4" x="179" y="53"/><text fill="#000000" font-family="sans-serif" font-size="14" lengthAdjust="spacing" textLength="58" x="118" y="74.9951">Sistema</text></g><!--MD5=[b643aff2f6de854ee098fa19746d9d7e]
entity MOD--><g id="elem_MOD"><rect fill="#F1F1F1" height="46.2969" rx="2.5" ry="2.5" style="stroke:#181818;stroke-width:0.5;" width="178" x="23" y="154"/><rect fill="#F1F1F1" height="10" style="stroke:#181818;stroke-width:0.5;" width="15" x="181" y="159"/><rect fill="#F1F1F1" height="2" style="stroke:#181818;stroke-width:0.5;" width="4" x="179" y="161"/><rect fill="#F1F1F1" height="2" style="stroke:#181818;stroke-width:0.5;" width="4" x="179" y="165"/><text fill="#000000" font-family="sans-serif" font-size="14" lengthAdjust="spacing" textLength="138" x="38" y="186.9951">Modelo de Previsão</text></g><!--MD5=[d420a9cf64d6b545f3755253952b3c16]
entity IPG--><g id="elem_IPG"><ellipse cx="313" cy="177" fill="#F1F1F1" rx="8" ry="8" style="stroke:#181818;stroke-width:0.5;"/><text fill="#000000" font-family="sans-serif" font-size="14" lengthAdjust="spacing" textLength="138" x="244" y="206.9951">Intel Power Gadget</text></g><!--MD5=[1b6f34fe2510f2f714dae0aab426a88b]
entity NSMI--><g id="elem_NSMI"><ellipse cx="570" cy="177" fill="#F1F1F1" rx="8" ry="8" style="stroke:#181818;stroke-width:0.5;"/><text fill="#000000" font-family="sans-serif" font-size="14" lengthAdjust="spacing" textLength="275" x="432.5" y="206.9951">NVIDIA System Management Interface</text></g><!--MD5=[ed45a1ad9ee6006b4d566ab9ab84967b]
link SYS to MOD--><g id="link_SYS_MOD"><path d="M143.905,88.26 C136.966,107.345 127.019,134.698 120.083,153.773 " fill="none" id="SYS-MOD" style="stroke:#181818;stroke-width:1.0;"/></g><!--MD5=[339d657c39a7c39ff777e23113e19685]
link SYS to IPG--><g id="link_SYS_IPG"><path d="M193.264,94.193 C226.284,116.753 270.964,147.2795 295.339,163.9332 " fill="none" id="SYS-IPG" style="stroke:#181818;stroke-width:1.0;stroke-dasharray:1.0,3.0;"/><path d="M306.1265,161.0612 A9,9 0 0 0 296.5844 175.0271" fill="none" style="stroke:#181818;stroke-width:1.5;"/><rect fill="#FFFFFF" height="10" style="stroke:#181818;stroke-width:1.5;" width="10" x="179.581" y="83.26"/></g><!--MD5=[0783db103909dd789c3251638887e89d]
link SYS to NSMI--><g id="link_SYS_NSMI"><path d="M211.027,81.533 C306.874,106.756 491.633,155.3771 551.08,171.0211 " fill="none" id="SYS-NSMI" style="stroke:#181818;stroke-width:1.0;stroke-dasharray:1.0,3.0;"/><path d="M560.1299,164.6577 A9,9 0 0 0 555.8263 181.0155" fill="none" style="stroke:#181818;stroke-width:1.5;"/><rect fill="#FFFFFF" height="10" style="stroke:#181818;stroke-width:1.5;" width="10" x="196.179" y="73.942"/></g><!--MD5=[1a783a3b1d4f127d97995e353b17b5d9]
@startuml
component System{
    component "Sistema" as SYS
    component "Modelo de Previsão" as MOD
}

interface "Intel Power Gadget" as IPG
interface "NVIDIA System Management Interface" as NSMI

SYS - - MOD
SYS #~~( IPG
SYS #~~( NSMI
@enduml

PlantUML version 1.2022.6beta5(Unknown compile time)
(GPL source distribution)
Java Runtime: Java(TM) SE Runtime Environment
JVM: Java HotSpot(TM) 64-Bit Server VM
Default Encoding: UTF-8
Language: en
Country: US
--></g></svg>