<?xml version="1.0" encoding="UTF-8" standalone="no"?><svg xmlns="http://www.w3.org/2000/svg" xmlns:xlink="http://www.w3.org/1999/xlink" contentStyleType="text/css" height="321px" preserveAspectRatio="none" style="width:859px;height:321px;background:#FFFFFF;" version="1.1" viewBox="0 0 859 321" width="859px" zoomAndPan="magnify"><defs/><g><!--MD5=[99b31deea5d7419a569cd5090bf83263]
cluster System--><g id="cluster_System"><rect height="203" rx="2.5" ry="2.5" style="stroke:#181818;stroke-width:1.0;fill:none;" width="846" x="7" y="7"/><rect height="10" style="stroke:#181818;stroke-width:1.0;fill:none;" width="15" x="833" y="12"/><rect height="2" style="stroke:#181818;stroke-width:1.0;fill:none;" width="4" x="831" y="14"/><rect height="2" style="stroke:#181818;stroke-width:1.0;fill:none;" width="4" x="831" y="18"/><text fill="#000000" font-family="sans-serif" font-size="14" font-weight="bold" lengthAdjust="spacing" textLength="60" x="400" y="32.9951">System</text></g><!--MD5=[f40f77c08947afcca4b9f032db8688c9]
entity Scripts--><g id="elem_Scripts"><rect fill="#F1F1F1" height="46.2969" rx="2.5" ry="2.5" style="stroke:#181818;stroke-width:0.5;" width="91" x="376.5" y="42"/><rect fill="#F1F1F1" height="10" style="stroke:#181818;stroke-width:0.5;" width="15" x="447.5" y="47"/><rect fill="#F1F1F1" height="2" style="stroke:#181818;stroke-width:0.5;" width="4" x="445.5" y="49"/><rect fill="#F1F1F1" height="2" style="stroke:#181818;stroke-width:0.5;" width="4" x="445.5" y="53"/><text fill="#000000" font-family="sans-serif" font-size="14" lengthAdjust="spacing" textLength="51" x="391.5" y="74.9951">Scripts</text></g><!--MD5=[e0a33397f93f2b6b1a24c48cc73a986e]
entity CPU--><g id="elem_CPU"><rect fill="#F1F1F1" height="46.2969" rx="2.5" ry="2.5" style="stroke:#181818;stroke-width:0.5;" width="171" x="233.5" y="148"/><rect fill="#F1F1F1" height="10" style="stroke:#181818;stroke-width:0.5;" width="15" x="384.5" y="153"/><rect fill="#F1F1F1" height="2" style="stroke:#181818;stroke-width:0.5;" width="4" x="382.5" y="155"/><rect fill="#F1F1F1" height="2" style="stroke:#181818;stroke-width:0.5;" width="4" x="382.5" y="159"/><text fill="#000000" font-family="sans-serif" font-size="14" lengthAdjust="spacing" textLength="131" x="248.5" y="180.9951">CPU Power Reader</text></g><!--MD5=[ab6cc78aeaa82ab42a1cfb89503913b6]
entity GPU--><g id="elem_GPU"><rect fill="#F1F1F1" height="46.2969" rx="2.5" ry="2.5" style="stroke:#181818;stroke-width:0.5;" width="172" x="440" y="148"/><rect fill="#F1F1F1" height="10" style="stroke:#181818;stroke-width:0.5;" width="15" x="592" y="153"/><rect fill="#F1F1F1" height="2" style="stroke:#181818;stroke-width:0.5;" width="4" x="590" y="155"/><rect fill="#F1F1F1" height="2" style="stroke:#181818;stroke-width:0.5;" width="4" x="590" y="159"/><text fill="#000000" font-family="sans-serif" font-size="14" lengthAdjust="spacing" textLength="132" x="455" y="180.9951">GPU Power Reader</text></g><!--MD5=[9a08308e3c6a2a920a99bdbbb79ccc77]
entity RAM--><g id="elem_RAM"><rect fill="#F1F1F1" height="46.2969" rx="2.5" ry="2.5" style="stroke:#181818;stroke-width:0.5;" width="175" x="23.5" y="148"/><rect fill="#F1F1F1" height="10" style="stroke:#181818;stroke-width:0.5;" width="15" x="178.5" y="153"/><rect fill="#F1F1F1" height="2" style="stroke:#181818;stroke-width:0.5;" width="4" x="176.5" y="155"/><rect fill="#F1F1F1" height="2" style="stroke:#181818;stroke-width:0.5;" width="4" x="176.5" y="159"/><text fill="#000000" font-family="sans-serif" font-size="14" lengthAdjust="spacing" textLength="135" x="38.5" y="180.9951">RAM Power Reader</text></g><!--MD5=[521e3f672ff1045f69c311733b568075]
entity OUT--><g id="elem_OUT"><rect fill="#F1F1F1" height="46.2969" rx="2.5" ry="2.5" style="stroke:#181818;stroke-width:0.5;" width="189" x="647.5" y="148"/><rect fill="#F1F1F1" height="10" style="stroke:#181818;stroke-width:0.5;" width="15" x="816.5" y="153"/><rect fill="#F1F1F1" height="2" style="stroke:#181818;stroke-width:0.5;" width="4" x="814.5" y="155"/><rect fill="#F1F1F1" height="2" style="stroke:#181818;stroke-width:0.5;" width="4" x="814.5" y="159"/><text fill="#000000" font-family="sans-serif" font-size="14" lengthAdjust="spacing" textLength="149" x="662.5" y="180.9951">Outlet Power Reader</text></g><!--MD5=[d420a9cf64d6b545f3755253952b3c16]
entity IPG--><g id="elem_IPG"><ellipse cx="190" cy="283" fill="#F1F1F1" rx="8" ry="8" style="stroke:#181818;stroke-width:0.5;"/><text fill="#000000" font-family="sans-serif" font-size="14" lengthAdjust="spacing" textLength="138" x="121" y="312.9951">Intel Power Gadget</text></g><!--MD5=[1b6f34fe2510f2f714dae0aab426a88b]
entity NSMI--><g id="elem_NSMI"><ellipse cx="526" cy="283" fill="#F1F1F1" rx="8" ry="8" style="stroke:#181818;stroke-width:0.5;"/><text fill="#000000" font-family="sans-serif" font-size="14" lengthAdjust="spacing" textLength="275" x="388.5" y="312.9951">NVIDIA System Management Interface</text></g><!--MD5=[d2dcce8e5c22e83af075ba30e149ff56]
link CPU to IPG--><g id="link_CPU_IPG"><path d="M285.083,200.922 C260.006,222.3054 226.903,250.532 207.102,267.4166 " fill="none" id="CPU-IPG" style="stroke:#181818;stroke-width:1.0;stroke-dasharray:1.0,3.0;"/><path d="M207.0847,278.5463 A9,9 0 0 0 196.1097 265.6759" fill="none" style="stroke:#181818;stroke-width:1.5;"/><rect fill="#FFFFFF" height="10" style="stroke:#181818;stroke-width:1.5;" width="10" x="287.895" y="189.26"/></g><!--MD5=[4808ffb5f3367471f05f6f8c52ad3ce3]
link RAM to IPG--><g id="link_RAM_IPG"><path d="M132.879,202.464 C147.576,222.9287 166.368,249.0944 178.298,265.7064 " fill="none" id="RAM-IPG" style="stroke:#181818;stroke-width:1.0;stroke-dasharray:1.0,3.0;"/><path d="M189.2242,266.4217 A9,9 0 0 0 175.4863 276.2893" fill="none" style="stroke:#181818;stroke-width:1.5;"/><rect fill="#FFFFFF" height="10" style="stroke:#181818;stroke-width:1.5;" width="10" x="121.987" y="189.26"/></g><!--MD5=[ab3c45c7d1978ca3aad84da56904de9d]
link GPU to NSMI--><g id="link_GPU_NSMI"><path d="M526,204.386 C526,223.7076 526,247.5372 526,263.6561 " fill="none" id="GPU-NSMI" style="stroke:#181818;stroke-width:1.0;stroke-dasharray:1.0,3.0;"/><path d="M534.4573,270.7775 A9,9 0 0 0 517.5428 270.7773" fill="none" style="stroke:#181818;stroke-width:1.5;"/><rect fill="#FFFFFF" height="10" style="stroke:#181818;stroke-width:1.5;" width="10" x="521" y="189.26"/></g><!--MD5=[70a7730923cb1ed96238bd100ee53d30]
link Scripts to CPU--><g id="link_Scripts_CPU"><path d="M400.156,88.056 C382.677,105.705 358.283,130.335 340.812,147.976 " fill="none" id="Scripts-CPU" style="stroke:#181818;stroke-width:1.0;"/></g><!--MD5=[a15372c872388e719a8d809c6412dcad]
link Scripts to GPU--><g id="link_Scripts_GPU"><path d="M444.056,88.056 C461.705,105.705 486.335,130.335 503.976,147.976 " fill="none" id="Scripts-GPU" style="stroke:#181818;stroke-width:1.0;"/></g><!--MD5=[58ec044ce6b5922068295f1977825659]
link Scripts to RAM--><g id="link_Scripts_RAM"><path d="M376.445,81.234 C323.889,98.809 237.029,127.855 177.06,147.909 " fill="none" id="Scripts-RAM" style="stroke:#181818;stroke-width:1.0;"/></g><!--MD5=[02df5d5804aed2753e573f75220b3b86]
link Scripts to OUT--><g id="link_Scripts_OUT"><path d="M467.508,80.79 C521.431,98.315 611.786,127.68 674.013,147.904 " fill="none" id="Scripts-OUT" style="stroke:#181818;stroke-width:1.0;"/></g><!--MD5=[8d082c27c1b7ab0469ad199f7de217ad]
@startuml
component System{
    component Scripts 
    component "CPU Power Reader" as CPU
    component "GPU Power Reader" as GPU
    component "RAM Power Reader" as RAM
    component "Outlet Power Reader" as OUT
}

interface "Intel Power Gadget" as IPG
interface "NVIDIA System Management Interface" as NSMI

CPU #~~( IPG
RAM #~~( IPG
GPU #~~( NSMI

Scripts - - CPU
Scripts - - GPU
Scripts - - RAM
Scripts - - OUT
@enduml

PlantUML version 1.2022.6beta5(Unknown compile time)
(GPL source distribution)
Java Runtime: Java(TM) SE Runtime Environment
JVM: Java HotSpot(TM) 64-Bit Server VM
Default Encoding: UTF-8
Language: en
Country: US
--></g></svg>