<?xml version="1.0" encoding="UTF-8" standalone="no"?><svg xmlns="http://www.w3.org/2000/svg" xmlns:xlink="http://www.w3.org/1999/xlink" contentStyleType="text/css" height="216px" preserveAspectRatio="none" style="width:374px;height:216px;background:#FFFFFF;" version="1.1" viewBox="0 0 374 216" width="374px" zoomAndPan="magnify"><defs/><g><!--MD5=[c2e703007e33c08ccf965f3a821dcd08]
cluster Sistema--><g id="cluster_Sistema"><rect height="203" rx="2.5" ry="2.5" style="stroke:#181818;stroke-width:1.0;fill:none;" width="164" x="7" y="7"/><rect height="10" style="stroke:#181818;stroke-width:1.0;fill:none;" width="15" x="151" y="12"/><rect height="2" style="stroke:#181818;stroke-width:1.0;fill:none;" width="4" x="149" y="14"/><rect height="2" style="stroke:#181818;stroke-width:1.0;fill:none;" width="4" x="149" y="18"/><text fill="#000000" font-family="sans-serif" font-size="14" font-weight="bold" lengthAdjust="spacing" textLength="66" x="56" y="32.9951">Sistema</text></g><!--MD5=[fa92c0c292cdeae80e2f3763d35ba241]
entity SYS--><g id="elem_SYS"><rect fill="#F1F1F1" height="46.2969" rx="2.5" ry="2.5" style="stroke:#181818;stroke-width:0.5;" width="91" x="53.5" y="42"/><rect fill="#F1F1F1" height="10" style="stroke:#181818;stroke-width:0.5;" width="15" x="124.5" y="47"/><rect fill="#F1F1F1" height="2" style="stroke:#181818;stroke-width:0.5;" width="4" x="122.5" y="49"/><rect fill="#F1F1F1" height="2" style="stroke:#181818;stroke-width:0.5;" width="4" x="122.5" y="53"/><text fill="#000000" font-family="sans-serif" font-size="14" lengthAdjust="spacing" textLength="51" x="68.5" y="74.9951">Scripts</text></g><!--MD5=[645d8587175d8f7ad110cd370775931d]
entity API--><g id="elem_API"><rect fill="#F1F1F1" height="46.2969" rx="2.5" ry="2.5" style="stroke:#181818;stroke-width:0.5;" width="131" x="23.5" y="148"/><rect fill="#F1F1F1" height="10" style="stroke:#181818;stroke-width:0.5;" width="15" x="134.5" y="153"/><rect fill="#F1F1F1" height="2" style="stroke:#181818;stroke-width:0.5;" width="4" x="132.5" y="155"/><rect fill="#F1F1F1" height="2" style="stroke:#181818;stroke-width:0.5;" width="4" x="132.5" y="159"/><text fill="#000000" font-family="sans-serif" font-size="14" lengthAdjust="spacing" textLength="91" x="38.5" y="180.9951">energyusage</text></g><!--MD5=[4c4b63aa0119a823331c6b9916b4b18a]
entity MP--><g id="elem_MP"><rect fill="#F1F1F1" height="46.2969" rx="2.5" ry="2.5" style="stroke:#181818;stroke-width:0.5;" width="178" x="190" y="148"/><rect fill="#F1F1F1" height="10" style="stroke:#181818;stroke-width:0.5;" width="15" x="348" y="153"/><rect fill="#F1F1F1" height="2" style="stroke:#181818;stroke-width:0.5;" width="4" x="346" y="155"/><rect fill="#F1F1F1" height="2" style="stroke:#181818;stroke-width:0.5;" width="4" x="346" y="159"/><text fill="#000000" font-family="sans-serif" font-size="14" lengthAdjust="spacing" textLength="138" x="205" y="180.9951">Modelo de Previsão</text></g><!--MD5=[563590475d48b3fe0b6e58b619dffaad]
link SYS to API--><g id="link_SYS_API"><path d="M96.879,88.056 C95.182,105.705 92.814,130.3353 91.118,147.9761 " fill="none" id="SYS-API" style="stroke:#181818;stroke-width:1.0;"/></g><!--MD5=[8ab9c8d9dde6dd83a7874a97d5b4c0dc]
link SYS to MP--><g id="link_SYS_MP"><path d="M137.173,88.056 C167.72,105.705 210.35,130.3353 240.882,147.9761 " fill="none" id="SYS-MP" style="stroke:#181818;stroke-width:1.0;"/></g><!--MD5=[860c2037dbb907cd8174543decc23613]
@startuml
component Sistema{
    component "Scripts" as SYS
    component "energyusage" as API
    
}

component "Modelo de Previsão" as MP

SYS - - API
SYS - - MP
@enduml

PlantUML version 1.2022.6beta5(Unknown compile time)
(GPL source distribution)
Java Runtime: Java(TM) SE Runtime Environment
JVM: Java HotSpot(TM) 64-Bit Server VM
Default Encoding: UTF-8
Language: en
Country: US
--></g></svg>