<?xml version="1.0" encoding="UTF-8" standalone="no"?><svg xmlns="http://www.w3.org/2000/svg" xmlns:xlink="http://www.w3.org/1999/xlink" contentStyleType="text/css" height="231px" preserveAspectRatio="none" style="width:231px;height:231px;background:#FFFFFF;" version="1.1" viewBox="0 0 231 231" width="231px" zoomAndPan="magnify"><defs/><g><!--MD5=[3dd69bb3697220fad5d33898126635a8]
cluster Server@GECAD--><g id="cluster_Server@GECAD"><polygon points="16,16,26,6,214,6,214,204,204,214,16,214,16,16" style="stroke:#181818;stroke-width:1.0;fill:none;"/><line style="stroke:#181818;stroke-width:1.0;fill:none;" x1="204" x2="214" y1="16" y2="6"/><line style="stroke:#181818;stroke-width:1.0;fill:none;" x1="16" x2="204" y1="16" y2="16"/><line style="stroke:#181818;stroke-width:1.0;fill:none;" x1="204" x2="204" y1="16" y2="214"/><text fill="#000000" font-family="sans-serif" font-size="14" font-weight="bold" lengthAdjust="spacing" textLength="118" x="52" y="31.9951">Server@GECAD</text></g><!--MD5=[abea0b42432aea0f9ce66e53feda8644]
entity System--><g id="elem_System"><rect fill="#F1F1F1" height="46.2969" rx="2.5" ry="2.5" style="stroke:#181818;stroke-width:0.5;" width="94" x="68" y="46"/><rect fill="#F1F1F1" height="10" style="stroke:#181818;stroke-width:0.5;" width="15" x="142" y="51"/><rect fill="#F1F1F1" height="2" style="stroke:#181818;stroke-width:0.5;" width="4" x="140" y="53"/><rect fill="#F1F1F1" height="2" style="stroke:#181818;stroke-width:0.5;" width="4" x="140" y="57"/><text fill="#000000" font-family="sans-serif" font-size="14" lengthAdjust="spacing" textLength="54" x="83" y="78.9951">System</text></g><!--MD5=[9f05f97d68a5d162bb9760ef9907fd1c]
entity ExternalSoftware--><g id="elem_ExternalSoftware"><rect fill="#F1F1F1" height="46.2969" rx="2.5" ry="2.5" style="stroke:#181818;stroke-width:0.5;" width="165" x="32.5" y="152"/><rect fill="#F1F1F1" height="10" style="stroke:#181818;stroke-width:0.5;" width="15" x="177.5" y="157"/><rect fill="#F1F1F1" height="2" style="stroke:#181818;stroke-width:0.5;" width="4" x="175.5" y="159"/><rect fill="#F1F1F1" height="2" style="stroke:#181818;stroke-width:0.5;" width="4" x="175.5" y="163"/><text fill="#000000" font-family="sans-serif" font-size="14" lengthAdjust="spacing" textLength="125" x="47.5" y="184.9951">ExternalSoftware</text></g><!--MD5=[d97e09676d1840b0e8b4bcf5ca9f5864]
link System to ExternalSoftware--><g id="link_System_ExternalSoftware"><path d="M115,92.056 C115,109.705 115,134.3353 115,151.9761 " fill="none" id="System-ExternalSoftware" style="stroke:#181818;stroke-width:1.0;"/></g><!--MD5=[c22062cdf8a62957bdc8a879487f2cfd]
@startuml
node Server@GECAD{
    component System
    component ExternalSoftware
}

System - - ExternalSoftware
@enduml

PlantUML version 1.2022.6beta5(Unknown compile time)
(GPL source distribution)
Java Runtime: Java(TM) SE Runtime Environment
JVM: Java HotSpot(TM) 64-Bit Server VM
Default Encoding: UTF-8
Language: en
Country: US
--></g></svg>