<?xml version="1.0" encoding="UTF-8" standalone="no"?><svg xmlns="http://www.w3.org/2000/svg" xmlns:xlink="http://www.w3.org/1999/xlink" contentStyleType="text/css" height="329px" preserveAspectRatio="none" style="width:212px;height:329px;background:#FFFFFF;" version="1.1" viewBox="0 0 212 329" width="212px" zoomAndPan="magnify"><defs/><g><!--MD5=[c2e703007e33c08ccf965f3a821dcd08]
cluster Sistema--><g id="cluster_Sistema"><rect height="113" rx="2.5" ry="2.5" style="stroke:#181818;stroke-width:1.0;fill:none;" width="159" x="38.1987" y="7"/><rect height="10" style="stroke:#181818;stroke-width:1.0;fill:none;" width="15" x="177.1987" y="12"/><rect height="2" style="stroke:#181818;stroke-width:1.0;fill:none;" width="4" x="175.1987" y="14"/><rect height="2" style="stroke:#181818;stroke-width:1.0;fill:none;" width="4" x="175.1987" y="18"/><text fill="#000000" font-family="sans-serif" font-size="14" font-weight="bold" lengthAdjust="spacing" textLength="66" x="84.6987" y="32.9951">Sistema</text></g><!--MD5=[fa92c0c292cdeae80e2f3763d35ba241]
entity SYS--><g id="elem_SYS"><rect fill="#F1F1F1" height="46.2969" rx="2.5" ry="2.5" style="stroke:#181818;stroke-width:0.5;" width="91" x="81.6987" y="50"/><rect fill="#F1F1F1" height="10" style="stroke:#181818;stroke-width:0.5;" width="15" x="152.6987" y="55"/><rect fill="#F1F1F1" height="2" style="stroke:#181818;stroke-width:0.5;" width="4" x="150.6987" y="57"/><rect fill="#F1F1F1" height="2" style="stroke:#181818;stroke-width:0.5;" width="4" x="150.6987" y="61"/><text fill="#000000" font-family="sans-serif" font-size="14" lengthAdjust="spacing" textLength="51" x="96.6987" y="82.9951">Scripts</text></g><!--MD5=[645d8587175d8f7ad110cd370775931d]
entity API--><g id="elem_API"><ellipse cx="46.1987" cy="291" fill="#F1F1F1" rx="8" ry="8" style="stroke:#181818;stroke-width:0.5;"/><text fill="#000000" font-family="sans-serif" font-size="14" lengthAdjust="spacing" textLength="67" x="12.6987" y="320.9951">PowerAPI</text></g><!--MD5=[4c4b63aa0119a823331c6b9916b4b18a]
entity MP--><g id="elem_MP"><rect fill="#F1F1F1" height="46.2969" rx="2.5" ry="2.5" style="stroke:#181818;stroke-width:0.5;" width="178" x="28.1987" y="156"/><rect fill="#F1F1F1" height="10" style="stroke:#181818;stroke-width:0.5;" width="15" x="186.1987" y="161"/><rect fill="#F1F1F1" height="2" style="stroke:#181818;stroke-width:0.5;" width="4" x="184.1987" y="163"/><rect fill="#F1F1F1" height="2" style="stroke:#181818;stroke-width:0.5;" width="4" x="184.1987" y="167"/><text fill="#000000" font-family="sans-serif" font-size="14" lengthAdjust="spacing" textLength="138" x="43.1987" y="188.9951">Modelo de Previsão</text></g><!--MD5=[87227d3de49847331e0161642ba24602]
link Sistema to MP--><g id="link_Sistema_MP"><path d="M56.8793,120.0243 C56.9637,120.2325 57.0487,120.4406 57.1344,120.6484 C57.3057,121.064 57.4795,121.4787 57.656,121.8923 C58.3619,123.5467 59.1096,125.1838 59.9013,126.7919 C61.4847,130.0081 63.2444,133.1085 65.1987,136 C70.2026,143.403 76.9007,150.153 83.8212,155.972 " fill="none" id="Sistema-MP" style="stroke:#181818;stroke-width:1.0;"/></g><!--MD5=[69368bc16b551f1c79ca006266593875]
link MP to API--><g id="link_MP_API"><path d="M102.8308,202.26 C86.9468,226.8691 62.1885,265.2271 51.4556,281.8556 " fill="none" id="MP-API" style="stroke:#181818;stroke-width:1.0;"/></g><!--MD5=[13331a15210e2d2613ccfcab932598e6]
link Sistema to API--><g id="link_Sistema_API"><path d="M38.0444,87.7343 C37.8379,88.1023 37.6288,88.4764 37.4173,88.8564 C36.9943,89.6164 36.5617,90.4001 36.1207,91.2063 C34.3568,94.4309 32.4596,98.014 30.5133,101.8719 C22.7282,117.3035 14.1581,137.132 10.1987,156 C6,176.009 6.2541,181.94 10.1987,202 C15.2571,227.7248 27.8961,255.4024 36.7622,272.7076 " fill="none" id="Sistema-API" style="stroke:#181818;stroke-width:1.0;stroke-dasharray:1.0,3.0;"/><path d="M47.5018,274.9337 A9,9 0 0 0 32.5448 282.8322" fill="none" style="stroke:#181818;stroke-width:1.5;"/><rect fill="#FFFFFF" height="10" style="stroke:#181818;stroke-width:1.5;" width="10" x="33.0444" y="82.7343"/></g><!--MD5=[44bfcce79c4375eafe60be4b797465cf]
@startuml
component Sistema{
    component "Scripts" as SYS
    
}

interface "PowerAPI" as API
component "Modelo de Previsão" as MP

Sistema - - MP
MP - - API
Sistema #~~( API
@enduml

PlantUML version 1.2022.6beta5(Unknown compile time)
(GPL source distribution)
Java Runtime: Java(TM) SE Runtime Environment
JVM: Java HotSpot(TM) 64-Bit Server VM
Default Encoding: UTF-8
Language: en
Country: US
--></g></svg>