<?xml version="1.0" encoding="UTF-8" standalone="no"?><svg xmlns="http://www.w3.org/2000/svg" xmlns:xlink="http://www.w3.org/1999/xlink" contentStyleType="text/css" height="512px" preserveAspectRatio="none" style="width:646px;height:512px;background:#FFFFFF;" version="1.1" viewBox="0 0 646 512" width="646px" zoomAndPan="magnify"><defs/><g><!--MD5=[3dd69bb3697220fad5d33898126635a8]
cluster Server@GECAD--><g id="cluster_Server@GECAD"><polygon points="16,16,26,6,614,6,614,485,604,495,16,495,16,16" style="stroke:#181818;stroke-width:1.0;fill:none;"/><line style="stroke:#181818;stroke-width:1.0;fill:none;" x1="604" x2="614" y1="16" y2="6"/><line style="stroke:#181818;stroke-width:1.0;fill:none;" x1="16" x2="604" y1="16" y2="16"/><line style="stroke:#181818;stroke-width:1.0;fill:none;" x1="604" x2="604" y1="16" y2="495"/><text fill="#000000" font-family="sans-serif" font-size="14" font-weight="bold" lengthAdjust="spacing" textLength="118" x="252" y="31.9951">Server@GECAD</text></g><!--MD5=[293b37e3871ab1189aa5781afb4bf3d4]
cluster sistema--><g id="cluster_sistema"><polygon points="246,64,256,54,455,54,455,253,445,263,246,263,246,64" style="stroke:#181818;stroke-width:1.0;fill:none;"/><line style="stroke:#181818;stroke-width:1.0;fill:none;" x1="445" x2="455" y1="64" y2="54"/><line style="stroke:#181818;stroke-width:1.0;fill:none;" x1="246" x2="445" y1="64" y2="64"/><line style="stroke:#181818;stroke-width:1.0;fill:none;" x1="445" x2="445" y1="64" y2="263"/><text fill="#000000" font-family="sans-serif" font-size="14" font-weight="bold" lengthAdjust="spacing" textLength="65" x="314" y="79.9951">sistema</text></g><!--MD5=[4c4b63aa0119a823331c6b9916b4b18a]
entity MP--><g id="elem_MP"><polygon fill="#F1F1F1" points="226,443,236,433,404,433,404,469.2969,394,479.2969,226,479.2969,226,443" style="stroke:#181818;stroke-width:0.5;"/><line style="stroke:#181818;stroke-width:0.5;" x1="394" x2="404" y1="443" y2="433"/><line style="stroke:#181818;stroke-width:0.5;" x1="226" x2="394" y1="443" y2="443"/><line style="stroke:#181818;stroke-width:0.5;" x1="394" x2="394" y1="443" y2="479.2969"/><text fill="#000000" font-family="sans-serif" font-size="14" lengthAdjust="spacing" textLength="138" x="241" y="465.9951">Modelo de Previsão</text></g><!--MD5=[d420a9cf64d6b545f3755253952b3c16]
entity IPG--><g id="elem_IPG"><polygon fill="#F1F1F1" points="32,336,42,326,210,326,210,362.2969,200,372.2969,32,372.2969,32,336" style="stroke:#181818;stroke-width:0.5;"/><line style="stroke:#181818;stroke-width:0.5;" x1="200" x2="210" y1="336" y2="326"/><line style="stroke:#181818;stroke-width:0.5;" x1="32" x2="200" y1="336" y2="336"/><line style="stroke:#181818;stroke-width:0.5;" x1="200" x2="200" y1="336" y2="372.2969"/><text fill="#000000" font-family="sans-serif" font-size="14" lengthAdjust="spacing" textLength="138" x="47" y="358.9951">Intel Power Gadget</text></g><!--MD5=[1b6f34fe2510f2f714dae0aab426a88b]
entity NSMI--><g id="elem_NSMI"><polygon fill="#F1F1F1" points="245.5,336,255.5,326,560.5,326,560.5,362.2969,550.5,372.2969,245.5,372.2969,245.5,336" style="stroke:#181818;stroke-width:0.5;"/><line style="stroke:#181818;stroke-width:0.5;" x1="550.5" x2="560.5" y1="336" y2="326"/><line style="stroke:#181818;stroke-width:0.5;" x1="245.5" x2="550.5" y1="336" y2="336"/><line style="stroke:#181818;stroke-width:0.5;" x1="550.5" x2="550.5" y1="336" y2="372.2969"/><text fill="#000000" font-family="sans-serif" font-size="14" lengthAdjust="spacing" textLength="275" x="260.5" y="358.9951">NVIDIA System Management Interface</text></g><!--MD5=[53ccf4b3ee6cf4337a0ab93ac09644f3]
entity main--><g id="elem_main"><rect fill="#F1F1F1" height="46.2969" rx="2.5" ry="2.5" style="stroke:#181818;stroke-width:0.5;" width="75" x="363.5" y="94"/><rect fill="#F1F1F1" height="10" style="stroke:#181818;stroke-width:0.5;" width="15" x="418.5" y="99"/><rect fill="#F1F1F1" height="2" style="stroke:#181818;stroke-width:0.5;" width="4" x="416.5" y="101"/><rect fill="#F1F1F1" height="2" style="stroke:#181818;stroke-width:0.5;" width="4" x="416.5" y="105"/><text fill="#000000" font-family="sans-serif" font-size="14" lengthAdjust="spacing" textLength="35" x="378.5" y="126.9951">main</text></g><!--MD5=[815e17c207bbf712f7f26918c1feb6f8]
entity utils--><g id="elem_utils"><rect fill="#F1F1F1" height="46.2969" rx="2.5" ry="2.5" style="stroke:#181818;stroke-width:0.5;" width="70" x="262" y="201"/><rect fill="#F1F1F1" height="10" style="stroke:#181818;stroke-width:0.5;" width="15" x="312" y="206"/><rect fill="#F1F1F1" height="2" style="stroke:#181818;stroke-width:0.5;" width="4" x="310" y="208"/><rect fill="#F1F1F1" height="2" style="stroke:#181818;stroke-width:0.5;" width="4" x="310" y="212"/><text fill="#000000" font-family="sans-serif" font-size="14" lengthAdjust="spacing" textLength="30" x="277" y="233.9951">utils</text></g><!--MD5=[f04bcface800b3498ac77214835b90cd]
entity cmd--><g id="elem_cmd"><rect fill="#F1F1F1" height="46.2969" rx="2.5" ry="2.5" style="stroke:#181818;stroke-width:0.5;" width="71" x="367.5" y="201"/><rect fill="#F1F1F1" height="10" style="stroke:#181818;stroke-width:0.5;" width="15" x="418.5" y="206"/><rect fill="#F1F1F1" height="2" style="stroke:#181818;stroke-width:0.5;" width="4" x="416.5" y="208"/><rect fill="#F1F1F1" height="2" style="stroke:#181818;stroke-width:0.5;" width="4" x="416.5" y="212"/><text fill="#000000" font-family="sans-serif" font-size="14" lengthAdjust="spacing" textLength="31" x="382.5" y="233.9951">cmd</text></g><!--MD5=[855f47462fa1e287d6032af9f60e2450]
link main to MP--><g id="link_main_MP"><path d="M437.176,140.164 C505.177,184.606 639.884,287.578 578,372 C538.512,425.8692 463.965,445.6754 404.293,452.546 " fill="none" id="main-MP" style="stroke:#181818;stroke-width:1.0;"/><text fill="#000000" font-family="sans-serif" font-size="13" lengthAdjust="spacing" textLength="37" x="589" y="292.0669">http/s</text></g><!--MD5=[08889e9a5ec428bb0857a7be32f9fdbd]
link main to utils--><g id="link_main_utils"><path d="M379.198,140.011 C361.568,157.812 336.849,182.767 319.131,200.656 " fill="none" id="main-utils" style="stroke:#181818;stroke-width:1.0;"/></g><!--MD5=[5eb09bc5f6a35915beddafe894fed01e]
link main to cmd--><g id="link_main_cmd"><path d="M401.419,140.011 C401.758,157.812 402.234,182.767 402.574,200.656 " fill="none" id="main-cmd" style="stroke:#181818;stroke-width:1.0;"/></g><!--MD5=[f276f42dd1e6e9d315a130bbf52cb250]
link IPG to MP--><g id="link_IPG_MP"><path d="M161.669,372.011 C194.668,389.872 240.977,414.9361 274.051,432.837 " fill="none" id="IPG-MP" style="stroke:#181818;stroke-width:1.0;"/></g><!--MD5=[0354e637337909b696e5e94a17af8506]
link cmd to IPG--><g id="link_cmd_IPG"><path d="M381.537,247.031 C372.432,255.429 361.316,264.527 350,271 C306.583,295.835 253.924,314.241 210.055,326.819 " fill="none" id="cmd-IPG" style="stroke:#181818;stroke-width:1.0;"/></g><!--MD5=[3ebd5bf92fb1a9779528e1259589aad4]
link cmd to NSMI--><g id="link_cmd_NSMI"><path d="M403,247.274 C403,269.566 403,303.658 403,325.891 " fill="none" id="cmd-NSMI" style="stroke:#181818;stroke-width:1.0;"/></g><!--MD5=[178c93cec6a8f950361749e8eb7d23de]
@startuml
node Server@GECAD{
    node sistema{
        component main
        component utils
        component cmd
    }
    node "Modelo de Previsão" as MP
    node "Intel Power Gadget" as IPG
    node "NVIDIA System Management Interface" as NSMI
}
main - - MP : http/s
main - - utils
main - - cmd
IPG - - MP
cmd - - IPG
cmd - - NSMI
@enduml

PlantUML version 1.2022.6beta5(Unknown compile time)
(GPL source distribution)
Java Runtime: Java(TM) SE Runtime Environment
JVM: Java HotSpot(TM) 64-Bit Server VM
Default Encoding: UTF-8
Language: en
Country: US
--></g></svg>