<?xml version="1.0" encoding="UTF-8" standalone="no"?><svg xmlns="http://www.w3.org/2000/svg" xmlns:xlink="http://www.w3.org/1999/xlink" contentStyleType="text/css" height="427px" preserveAspectRatio="none" style="width:617px;height:427px;background:#FFFFFF;" version="1.1" viewBox="0 0 617 427" width="617px" zoomAndPan="magnify"><defs/><g><!--MD5=[c2e703007e33c08ccf965f3a821dcd08]
cluster Sistema--><g id="cluster_Sistema"><path d="M224.5,6 L291.5,6 A3.75,3.75 0 0 1 294,8.5 L301,28.2969 L426.5,28.2969 A2.5,2.5 0 0 1 429,30.7969 L429,222.5 A2.5,2.5 0 0 1 426.5,225 L224.5,225 A2.5,2.5 0 0 1 222,222.5 L222,8.5 A2.5,2.5 0 0 1 224.5,6 " style="stroke:#000000;stroke-width:1.5;fill:none;"/><line style="stroke:#000000;stroke-width:1.5;fill:none;" x1="222" x2="301" y1="28.2969" y2="28.2969"/><text fill="#000000" font-family="sans-serif" font-size="14" font-weight="bold" lengthAdjust="spacing" textLength="66" x="226" y="20.9951">Sistema</text></g><!--MD5=[2456f3a6f5aa4d75f9c9b6fd42c52dfa]
entity Main--><g id="elem_Main"><path d="M345.5,41 L386.5,41 A3.75,3.75 0 0 1 389,43.5 L396,62 L410.5,62 A2.5,2.5 0 0 1 413,64.5 L413,92.7969 A2.5,2.5 0 0 1 410.5,95.2969 L345.5,95.2969 A2.5,2.5 0 0 1 343,92.7969 L343,43.5 A2.5,2.5 0 0 1 345.5,41 " fill="#F1F1F1" style="stroke:#181818;stroke-width:0.5;"/><line style="stroke:#181818;stroke-width:0.5;" x1="343" x2="396" y1="62" y2="62"/><text fill="#000000" font-family="sans-serif" font-size="14" lengthAdjust="spacing" textLength="33" x="353" y="81.9951">Main</text></g><!--MD5=[2af79368912813fdfdc24c106d63f21c]
entity Cmd--><g id="elem_Cmd"><path d="M240.5,155 L281.5,155 A3.75,3.75 0 0 1 284,157.5 L291,176 L305.5,176 A2.5,2.5 0 0 1 308,178.5 L308,206.7969 A2.5,2.5 0 0 1 305.5,209.2969 L240.5,209.2969 A2.5,2.5 0 0 1 238,206.7969 L238,157.5 A2.5,2.5 0 0 1 240.5,155 " fill="#F1F1F1" style="stroke:#181818;stroke-width:0.5;"/><line style="stroke:#181818;stroke-width:0.5;" x1="238" x2="291" y1="176" y2="176"/><text fill="#000000" font-family="sans-serif" font-size="14" lengthAdjust="spacing" textLength="33" x="248" y="195.9951">Cmd</text></g><!--MD5=[4c3229e8240dfa29ecc305808e5086bb]
entity Utils--><g id="elem_Utils"><path d="M345.5,155 L386.5,155 A3.75,3.75 0 0 1 389,157.5 L396,176 L410.5,176 A2.5,2.5 0 0 1 413,178.5 L413,206.7969 A2.5,2.5 0 0 1 410.5,209.2969 L345.5,209.2969 A2.5,2.5 0 0 1 343,206.7969 L343,157.5 A2.5,2.5 0 0 1 345.5,155 " fill="#F1F1F1" style="stroke:#181818;stroke-width:0.5;"/><line style="stroke:#181818;stroke-width:0.5;" x1="343" x2="396" y1="176" y2="176"/><text fill="#000000" font-family="sans-serif" font-size="14" lengthAdjust="spacing" textLength="31" x="353" y="195.9951">Utils</text></g><!--MD5=[d420a9cf64d6b545f3755253952b3c16]
entity IPG--><g id="elem_IPG"><rect fill="#F1F1F1" height="46.2969" rx="2.5" ry="2.5" style="stroke:#181818;stroke-width:0.5;" width="178" x="7" y="269"/><rect fill="#F1F1F1" height="10" style="stroke:#181818;stroke-width:0.5;" width="15" x="165" y="274"/><rect fill="#F1F1F1" height="2" style="stroke:#181818;stroke-width:0.5;" width="4" x="163" y="276"/><rect fill="#F1F1F1" height="2" style="stroke:#181818;stroke-width:0.5;" width="4" x="163" y="280"/><text fill="#000000" font-family="sans-serif" font-size="14" lengthAdjust="spacing" textLength="138" x="22" y="301.9951">Intel Power Gadget</text></g><!--MD5=[1b6f34fe2510f2f714dae0aab426a88b]
entity NSMI--><g id="elem_NSMI"><rect fill="#F1F1F1" height="46.2969" rx="2.5" ry="2.5" style="stroke:#181818;stroke-width:0.5;" width="315" x="220.5" y="269"/><rect fill="#F1F1F1" height="10" style="stroke:#181818;stroke-width:0.5;" width="15" x="515.5" y="274"/><rect fill="#F1F1F1" height="2" style="stroke:#181818;stroke-width:0.5;" width="4" x="513.5" y="276"/><rect fill="#F1F1F1" height="2" style="stroke:#181818;stroke-width:0.5;" width="4" x="513.5" y="280"/><text fill="#000000" font-family="sans-serif" font-size="14" lengthAdjust="spacing" textLength="275" x="235.5" y="301.9951">NVIDIA System Management Interface</text></g><!--MD5=[4c4b63aa0119a823331c6b9916b4b18a]
entity MP--><g id="elem_MP"><rect fill="#F1F1F1" height="46.2969" rx="2.5" ry="2.5" style="stroke:#181818;stroke-width:0.5;" width="178" x="253" y="375"/><rect fill="#F1F1F1" height="10" style="stroke:#181818;stroke-width:0.5;" width="15" x="411" y="380"/><rect fill="#F1F1F1" height="2" style="stroke:#181818;stroke-width:0.5;" width="4" x="409" y="382"/><rect fill="#F1F1F1" height="2" style="stroke:#181818;stroke-width:0.5;" width="4" x="409" y="386"/><text fill="#000000" font-family="sans-serif" font-size="14" lengthAdjust="spacing" textLength="138" x="268" y="407.9951">Modelo de Previsão</text></g><!--MD5=[d4f7573bb6c8d0c5c7b6437de0172fc0]
link Main to Cmd--><g id="link_Main_Cmd"><path d="M353.382,95.259 C336.531,113.233 314.281,136.966 297.464,154.905 " fill="none" id="Main-Cmd" style="stroke:#181818;stroke-width:1.0;"/></g><!--MD5=[d2f9d9dc63374aa0c493119b7436e823]
link Main to Utils--><g id="link_Main_Utils"><path d="M378,95.259 C378,113.233 378,136.966 378,154.905 " fill="none" id="Main-Utils" style="stroke:#181818;stroke-width:1.0;"/></g><!--MD5=[9a1cecb8c277f2764016d90d8ce29395]
link Utils to IPG--><g id="link_Utils_IPG"><path d="M355.556,209.03 C346.811,217.77 336.199,226.85 325,233 C312.306,239.971 243.904,256.907 185.133,270.689 " fill="none" id="Utils-IPG" style="stroke:#181818;stroke-width:1.0;"/></g><!--MD5=[7e9aef4cccf99c7efb10a0f92733c059]
link Utils to NSMI--><g id="link_Utils_NSMI"><path d="M378,209.144 C378,227.373 378,251.433 378,268.745 " fill="none" id="Utils-NSMI" style="stroke:#181818;stroke-width:1.0;"/></g><!--MD5=[2c6a8c8be3838e45160e524b5652a240]
link Main to MP--><g id="link_Main_MP"><path d="M413.158,90.041 C479.304,132.322 610.641,230.759 553,315 C525.591,355.0572 475.522,375.5494 431.034,386.0312 " fill="none" id="Main-MP" style="stroke:#181818;stroke-width:1.0;"/></g><!--MD5=[f276f42dd1e6e9d315a130bbf52cb250]
link IPG to MP--><g id="link_IPG_MP"><path d="M148.17,315.056 C189.917,332.7049 248.178,357.3353 289.905,374.9761 " fill="none" id="IPG-MP" style="stroke:#181818;stroke-width:1.0;"/></g><!--MD5=[41900bdb8ce90f1149572fd7041a4947]
@startuml
folder Sistema{
    folder Main
    folder Cmd
    folder Utils
}
Main - - Cmd
Main - - Utils

component "Intel Power Gadget" as IPG
component "NVIDIA System Management Interface" as NSMI

Utils - - IPG
Utils - - NSMI

component "Modelo de Previsão" as MP
Main - - MP
IPG - - MP
@enduml

PlantUML version 1.2022.6beta5(Unknown compile time)
(GPL source distribution)
Java Runtime: Java(TM) SE Runtime Environment
JVM: Java HotSpot(TM) 64-Bit Server VM
Default Encoding: UTF-8
Language: en
Country: US
--></g></svg>