<?xml version="1.0" encoding="UTF-8" standalone="no"?><svg xmlns="http://www.w3.org/2000/svg" xmlns:xlink="http://www.w3.org/1999/xlink" contentStyleType="text/css" height="395px" preserveAspectRatio="none" style="width:630px;height:395px;background:#FFFFFF;" version="1.1" viewBox="0 0 630 395" width="630px" zoomAndPan="magnify"><defs/><g><!--MD5=[99b31deea5d7419a569cd5090bf83263]
cluster System--><g id="cluster_System"><rect height="321" rx="2.5" ry="2.5" style="stroke:#181818;stroke-width:1.0;fill:none;" width="317" x="7" y="68"/><rect height="10" style="stroke:#181818;stroke-width:1.0;fill:none;" width="15" x="304" y="73"/><rect height="2" style="stroke:#181818;stroke-width:1.0;fill:none;" width="4" x="302" y="75"/><rect height="2" style="stroke:#181818;stroke-width:1.0;fill:none;" width="4" x="302" y="79"/><text fill="#000000" font-family="sans-serif" font-size="14" font-weight="bold" lengthAdjust="spacing" textLength="60" x="135.5" y="93.9951">System</text></g><!--MD5=[a5838f1314d5668e01fb5c9896550072]
entity MAIN--><g id="elem_MAIN"><rect fill="#F1F1F1" height="46.2969" rx="2.5" ry="2.5" style="stroke:#181818;stroke-width:0.5;" width="75" x="230.5" y="215"/><rect fill="#F1F1F1" height="10" style="stroke:#181818;stroke-width:0.5;" width="15" x="285.5" y="220"/><rect fill="#F1F1F1" height="2" style="stroke:#181818;stroke-width:0.5;" width="4" x="283.5" y="222"/><rect fill="#F1F1F1" height="2" style="stroke:#181818;stroke-width:0.5;" width="4" x="283.5" y="226"/><text fill="#000000" font-family="sans-serif" font-size="14" lengthAdjust="spacing" textLength="35" x="245.5" y="247.9951">main</text></g><!--MD5=[f2ca4ca4fa8ea39b73ab20043eb8c9e6]
entity CMD--><g id="elem_CMD"><rect fill="#F1F1F1" height="46.2969" rx="2.5" ry="2.5" style="stroke:#181818;stroke-width:0.5;" width="71" x="236.5" y="103"/><rect fill="#F1F1F1" height="10" style="stroke:#181818;stroke-width:0.5;" width="15" x="287.5" y="108"/><rect fill="#F1F1F1" height="2" style="stroke:#181818;stroke-width:0.5;" width="4" x="285.5" y="110"/><rect fill="#F1F1F1" height="2" style="stroke:#181818;stroke-width:0.5;" width="4" x="285.5" y="114"/><text fill="#000000" font-family="sans-serif" font-size="14" lengthAdjust="spacing" textLength="31" x="251.5" y="135.9951">cmd</text></g><!--MD5=[31d2324c246c24b2e9aa2c0b8a92a244]
entity UTILS--><g id="elem_UTILS"><rect fill="#F1F1F1" height="46.2969" rx="2.5" ry="2.5" style="stroke:#181818;stroke-width:0.5;" width="70" x="233" y="327"/><rect fill="#F1F1F1" height="10" style="stroke:#181818;stroke-width:0.5;" width="15" x="283" y="332"/><rect fill="#F1F1F1" height="2" style="stroke:#181818;stroke-width:0.5;" width="4" x="281" y="334"/><rect fill="#F1F1F1" height="2" style="stroke:#181818;stroke-width:0.5;" width="4" x="281" y="338"/><text fill="#000000" font-family="sans-serif" font-size="14" lengthAdjust="spacing" textLength="30" x="248" y="359.9951">utils</text></g><!--MD5=[b643aff2f6de854ee098fa19746d9d7e]
entity MOD--><g id="elem_MOD"><rect fill="#F1F1F1" height="46.2969" rx="2.5" ry="2.5" style="stroke:#181818;stroke-width:0.5;" width="178" x="23" y="103"/><rect fill="#F1F1F1" height="10" style="stroke:#181818;stroke-width:0.5;" width="15" x="181" y="108"/><rect fill="#F1F1F1" height="2" style="stroke:#181818;stroke-width:0.5;" width="4" x="179" y="110"/><rect fill="#F1F1F1" height="2" style="stroke:#181818;stroke-width:0.5;" width="4" x="179" y="114"/><text fill="#000000" font-family="sans-serif" font-size="14" lengthAdjust="spacing" textLength="138" x="38" y="135.9951">Modelo de Previsão</text></g><!--MD5=[d420a9cf64d6b545f3755253952b3c16]
entity IPG--><g id="elem_IPG"><ellipse cx="192" cy="14" fill="#F1F1F1" rx="8" ry="8" style="stroke:#181818;stroke-width:0.5;"/><text fill="#000000" font-family="sans-serif" font-size="14" lengthAdjust="spacing" textLength="138" x="123" y="43.9951">Intel Power Gadget</text></g><!--MD5=[1b6f34fe2510f2f714dae0aab426a88b]
entity NSMI--><g id="elem_NSMI"><ellipse cx="486" cy="238" fill="#F1F1F1" rx="8" ry="8" style="stroke:#181818;stroke-width:0.5;"/><text fill="#000000" font-family="sans-serif" font-size="14" lengthAdjust="spacing" textLength="275" x="348.5" y="267.9951">NVIDIA System Management Interface</text></g><!--MD5=[f3b418a2cce9f0f833f57396098e203f]
link CMD to MAIN--><g id="link_CMD_MAIN"><path d="M271.191,149.26 C270.497,168.345 269.502,195.698 268.808,214.773 " fill="none" id="CMD-MAIN" style="stroke:#181818;stroke-width:1.0;"/></g><!--MD5=[bb5c6116936f8f452495300337b1648c]
link MAIN to UTILS--><g id="link_MAIN_UTILS"><path d="M268,261.26 C268,280.345 268,307.698 268,326.773 " fill="none" id="MAIN-UTILS" style="stroke:#181818;stroke-width:1.0;"/></g><!--MD5=[8dce8ac078cf75155dd4086929f8aa2a]
link IPG to MOD--><g id="link_IPG_MOD"><path d="M185.987,23.268 C173.85,39.956 146.063,78.164 128.209,102.713 " fill="none" id="IPG-MOD" style="stroke:#181818;stroke-width:1.0;"/></g><!--MD5=[a0143e6f78977261c860a64774a310a4]
link CMD to IPG--><g id="link_CMD_IPG"><path d="M249.725,94.372 C234.917,74.011 216.046,48.064 203.991,31.487 " fill="none" id="CMD-IPG" style="stroke:#181818;stroke-width:1.0;stroke-dasharray:1.0,3.0;"/><path d="M192.9838,30.7317 A9,9 0 0 0 206.6632 20.7832" fill="none" style="stroke:#181818;stroke-width:1.5;"/><rect fill="#FFFFFF" height="10" style="stroke:#181818;stroke-width:1.5;" width="10" x="250.791" y="97.713"/></g><!--MD5=[4e7711943d2eeed811798ada19d7132d]
link CMD to NSMI--><g id="link_CMD_NSMI"><path d="M316.789,150.022 C363.626,174.097 434.83,210.698 467.921,227.707 " fill="none" id="CMD-NSMI" style="stroke:#181818;stroke-width:1.0;stroke-dasharray:1.0,3.0;"/><path d="M478.0269,223.3921 A9,9 0 0 0 470.2938 238.4353" fill="none" style="stroke:#181818;stroke-width:1.5;"/><rect fill="#FFFFFF" height="10" style="stroke:#181818;stroke-width:1.5;" width="10" x="302.819" y="140.412"/></g><!--MD5=[d00e81e6314720375d5823eaf632c4f7]
@startuml
component System{
    component "main" as MAIN
    component "cmd" as CMD
    component "utils" as UTILS
    component "Modelo de Previsão" as MOD
}

interface "Intel Power Gadget" as IPG
interface "NVIDIA System Management Interface" as NSMI

CMD - - MAIN
MAIN - - UTILS
IPG - - MOD
CMD #~~( IPG
CMD #~~( NSMI
@enduml

PlantUML version 1.2022.6beta5(Unknown compile time)
(GPL source distribution)
Java Runtime: Java(TM) SE Runtime Environment
JVM: Java HotSpot(TM) 64-Bit Server VM
Default Encoding: UTF-8
Language: en
Country: US
--></g></svg>