<?xml version="1.0" encoding="UTF-8" standalone="no"?><svg xmlns="http://www.w3.org/2000/svg" xmlns:xlink="http://www.w3.org/1999/xlink" contentStyleType="text/css" height="961px" preserveAspectRatio="none" style="width:1593px;height:961px;background:#FFFFFF;" version="1.1" viewBox="0 0 1593 961" width="1593px" zoomAndPan="magnify"><defs/><g><rect fill="#FFFFFF" height="870.7109" style="stroke:#181818;stroke-width:1.0;" width="10" x="24.5" y="46.2969"/><rect fill="#FFFFFF" height="30" style="stroke:#181818;stroke-width:1.0;" width="10" x="309.5" y="67.4297"/><rect fill="#FFFFFF" height="400.7891" style="stroke:#181818;stroke-width:1.0;" width="10" x="381.5" y="238.2891"/><rect fill="#FFFFFF" height="29.1328" style="stroke:#181818;stroke-width:1.0;" width="10" x="565.5" y="167.8594"/><rect fill="#FFFFFF" height="277.2578" style="stroke:#181818;stroke-width:1.0;" width="10" x="565.5" y="340.6875"/><rect fill="#FFFFFF" height="29.1328" style="stroke:#181818;stroke-width:1.0;" width="10" x="565.5" y="668.2109"/><rect fill="#FFFFFF" height="238.125" style="stroke:#181818;stroke-width:1.0;" width="10" x="996.5" y="379.8203"/><rect fill="#FFFFFF" height="490.3516" style="stroke:#181818;stroke-width:1.0;" width="10" x="1236" y="206.9922"/><rect fill="#FFFFFF" height="196.8281" style="stroke:#181818;stroke-width:1.0;" width="10" x="1463.5" y="421.1172"/><rect height="59.2656" style="stroke:#000000;stroke-width:1.5;fill:none;" width="192" x="344.5" y="253.2891"/><rect height="59.2656" style="stroke:#000000;stroke-width:1.5;fill:none;" width="226" x="344.5" y="551.6797"/><line style="stroke:#181818;stroke-width:0.5;fill:none;stroke-dasharray:5.0,5.0;" x1="29" x2="29" y1="36.2969" y2="926.0078"/><line style="stroke:#181818;stroke-width:0.5;fill:none;stroke-dasharray:5.0,5.0;" x1="314.5" x2="314.5" y1="36.2969" y2="926.0078"/><line style="stroke:#181818;stroke-width:0.5;fill:none;stroke-dasharray:5.0,5.0;" x1="386.5" x2="386.5" y1="136.0781" y2="926.0078"/><line style="stroke:#181818;stroke-width:0.5;fill:none;stroke-dasharray:5.0,5.0;" x1="570" x2="570" y1="36.2969" y2="926.0078"/><line style="stroke:#181818;stroke-width:0.5;fill:none;stroke-dasharray:5.0,5.0;" x1="1001.5" x2="1001.5" y1="379.3359" y2="926.0078"/><line style="stroke:#181818;stroke-width:0.5;fill:none;stroke-dasharray:5.0,5.0;" x1="1240.5" x2="1240.5" y1="206.5078" y2="926.0078"/><line style="stroke:#181818;stroke-width:0.5;fill:none;stroke-dasharray:5.0,5.0;" x1="1468.5" x2="1468.5" y1="420.6328" y2="926.0078"/><rect fill="#E2E2F0" height="30.2969" rx="2.5" ry="2.5" style="stroke:#181818;stroke-width:0.5;" width="49" x="5" y="5"/><text fill="#000000" font-family="sans-serif" font-size="14" lengthAdjust="spacing" textLength="35" x="12" y="24.9951">main</text><rect fill="#E2E2F0" height="30.2969" rx="2.5" ry="2.5" style="stroke:#181818;stroke-width:0.5;" width="49" x="5" y="925.0078"/><text fill="#000000" font-family="sans-serif" font-size="14" lengthAdjust="spacing" textLength="35" x="12" y="945.0029">main</text><rect fill="#E2E2F0" height="30.2969" rx="2.5" ry="2.5" style="stroke:#181818;stroke-width:0.5;" width="44" x="292.5" y="5"/><text fill="#000000" font-family="sans-serif" font-size="14" lengthAdjust="spacing" textLength="30" x="299.5" y="24.9951">utils</text><rect fill="#E2E2F0" height="30.2969" rx="2.5" ry="2.5" style="stroke:#181818;stroke-width:0.5;" width="44" x="292.5" y="925.0078"/><text fill="#000000" font-family="sans-serif" font-size="14" lengthAdjust="spacing" textLength="30" x="299.5" y="945.0029">utils</text><rect fill="#E2E2F0" height="30.2969" rx="2.5" ry="2.5" style="stroke:#181818;stroke-width:0.5;" width="64" x="354.5" y="925.0078"/><text fill="#000000" font-family="sans-serif" font-size="14" lengthAdjust="spacing" textLength="50" x="361.5" y="945.0029">Thread</text><rect fill="#E2E2F0" height="30.2969" rx="2.5" ry="2.5" style="stroke:#181818;stroke-width:0.5;" width="45" x="548" y="5"/><text fill="#000000" font-family="sans-serif" font-size="14" lengthAdjust="spacing" textLength="31" x="555" y="24.9951">cmd</text><rect fill="#E2E2F0" height="30.2969" rx="2.5" ry="2.5" style="stroke:#181818;stroke-width:0.5;" width="45" x="548" y="925.0078"/><text fill="#000000" font-family="sans-serif" font-size="14" lengthAdjust="spacing" textLength="31" x="555" y="945.0029">cmd</text><rect fill="#E2E2F0" height="30.2969" rx="2.5" ry="2.5" style="stroke:#181818;stroke-width:0.5;" width="152" x="925.5" y="925.0078"/><text fill="#000000" font-family="sans-serif" font-size="14" lengthAdjust="spacing" textLength="138" x="932.5" y="945.0029">Intel Power Gadget</text><rect fill="#E2E2F0" height="30.2969" rx="2.5" ry="2.5" style="stroke:#181818;stroke-width:0.5;" width="283" x="1099.5" y="925.0078"/><text fill="#000000" font-family="sans-serif" font-size="14" lengthAdjust="spacing" textLength="269" x="1106.5" y="945.0029">Nvidia System Management Interface</text><rect fill="#E2E2F0" height="30.2969" rx="2.5" ry="2.5" style="stroke:#181818;stroke-width:0.5;" width="152" x="1392.5" y="925.0078"/><text fill="#000000" font-family="sans-serif" font-size="14" lengthAdjust="spacing" textLength="138" x="1399.5" y="945.0029">Modelo de Previsão</text><rect fill="#FFFFFF" height="870.7109" style="stroke:#181818;stroke-width:1.0;" width="10" x="24.5" y="46.2969"/><rect fill="#FFFFFF" height="30" style="stroke:#181818;stroke-width:1.0;" width="10" x="309.5" y="67.4297"/><rect fill="#FFFFFF" height="400.7891" style="stroke:#181818;stroke-width:1.0;" width="10" x="381.5" y="238.2891"/><rect fill="#FFFFFF" height="29.1328" style="stroke:#181818;stroke-width:1.0;" width="10" x="565.5" y="167.8594"/><rect fill="#FFFFFF" height="277.2578" style="stroke:#181818;stroke-width:1.0;" width="10" x="565.5" y="340.6875"/><rect fill="#FFFFFF" height="29.1328" style="stroke:#181818;stroke-width:1.0;" width="10" x="565.5" y="668.2109"/><rect fill="#FFFFFF" height="238.125" style="stroke:#181818;stroke-width:1.0;" width="10" x="996.5" y="379.8203"/><rect fill="#FFFFFF" height="490.3516" style="stroke:#181818;stroke-width:1.0;" width="10" x="1236" y="206.9922"/><rect fill="#FFFFFF" height="196.8281" style="stroke:#181818;stroke-width:1.0;" width="10" x="1463.5" y="421.1172"/><polygon fill="#181818" points="297.5,63.4297,307.5,67.4297,297.5,71.4297,301.5,67.4297" style="stroke:#181818;stroke-width:1.0;"/><line style="stroke:#181818;stroke-width:1.0;" x1="34.5" x2="303.5" y1="67.4297" y2="67.4297"/><text fill="#000000" font-family="sans-serif" font-size="13" lengthAdjust="spacing" textLength="94" x="41.5" y="62.3638">initialize_files()</text><polygon fill="#181818" points="342.5,122.5625,352.5,126.5625,342.5,130.5625,346.5,126.5625" style="stroke:#181818;stroke-width:1.0;"/><line style="stroke:#181818;stroke-width:1.0;" x1="34.5" x2="348.5" y1="126.5625" y2="126.5625"/><text fill="#000000" font-family="sans-serif" font-size="13" lengthAdjust="spacing" textLength="296" x="41.5" y="121.4966">create(target = process_cpu_usage, args = 0)</text><rect fill="#E2E2F0" height="30.2969" rx="2.5" ry="2.5" style="stroke:#181818;stroke-width:0.5;" width="64" x="354.5" y="105.4297"/><text fill="#000000" font-family="sans-serif" font-size="14" lengthAdjust="spacing" textLength="50" x="361.5" y="125.4248">Thread</text><polygon fill="#181818" points="553.5,163.8594,563.5,167.8594,553.5,171.8594,557.5,167.8594" style="stroke:#181818;stroke-width:1.0;"/><line style="stroke:#181818;stroke-width:1.0;" x1="34.5" x2="559.5" y1="167.8594" y2="167.8594"/><text fill="#000000" font-family="sans-serif" font-size="13" lengthAdjust="spacing" textLength="288" x="41.5" y="162.7935">gpu_pid = get_gpu_report(filename, interval)</text><polygon fill="#181818" points="1087.5,192.9922,1097.5,196.9922,1087.5,200.9922,1091.5,196.9922" style="stroke:#181818;stroke-width:1.0;"/><line style="stroke:#181818;stroke-width:1.0;" x1="570.5" x2="1093.5" y1="196.9922" y2="196.9922"/><text fill="#000000" font-family="sans-serif" font-size="13" lengthAdjust="spacing" textLength="500" x="577.5" y="191.9263">nvidia-smi --query-gpu=timestamp,power.draw -lms interval &gt;&gt; filename.csv</text><rect fill="#E2E2F0" height="30.2969" rx="2.5" ry="2.5" style="stroke:#181818;stroke-width:0.5;" width="283" x="1099.5" y="175.8594"/><text fill="#000000" font-family="sans-serif" font-size="14" lengthAdjust="spacing" textLength="269" x="1106.5" y="195.8545">Nvidia System Management Interface</text><polygon fill="#181818" points="369.5,234.2891,379.5,238.2891,369.5,242.2891,373.5,238.2891" style="stroke:#181818;stroke-width:1.0;"/><line style="stroke:#181818;stroke-width:1.0;" x1="34.5" x2="375.5" y1="238.2891" y2="238.2891"/><text fill="#000000" font-family="sans-serif" font-size="13" lengthAdjust="spacing" textLength="40" x="41.5" y="233.2231">start()</text><path d="M344.5,253.2891 L422.5,253.2891 L422.5,260.4219 L412.5,270.4219 L344.5,270.4219 L344.5,253.2891 " fill="#EEEEEE" style="stroke:#000000;stroke-width:1.5;"/><rect fill="none" height="59.2656" style="stroke:#000000;stroke-width:1.5;" width="192" x="344.5" y="253.2891"/><text fill="#000000" font-family="sans-serif" font-size="13" font-weight="bold" lengthAdjust="spacing" textLength="33" x="359.5" y="266.356">loop</text><text fill="#000000" font-family="sans-serif" font-size="11" font-weight="bold" lengthAdjust="spacing" textLength="94" x="437.5" y="265.4995">[while = TRUE]</text><line style="stroke:#181818;stroke-width:1.0;" x1="391.5" x2="433.5" y1="291.5547" y2="291.5547"/><line style="stroke:#181818;stroke-width:1.0;" x1="433.5" x2="433.5" y1="291.5547" y2="304.5547"/><line style="stroke:#181818;stroke-width:1.0;" x1="392.5" x2="433.5" y1="304.5547" y2="304.5547"/><polygon fill="#181818" points="402.5,300.5547,392.5,304.5547,402.5,308.5547,398.5,304.5547" style="stroke:#181818;stroke-width:1.0;"/><text fill="#000000" font-family="sans-serif" font-size="13" lengthAdjust="spacing" textLength="126" x="398.5" y="286.4888">pid = listener.recv()</text><polygon fill="#181818" points="553.5,336.6875,563.5,340.6875,553.5,344.6875,557.5,340.6875" style="stroke:#181818;stroke-width:1.0;"/><line style="stroke:#181818;stroke-width:1.0;" x1="34.5" x2="559.5" y1="340.6875" y2="340.6875"/><text fill="#000000" font-family="sans-serif" font-size="13" lengthAdjust="spacing" textLength="308" x="41.5" y="335.6216">get_process_report(save_file_name, command)</text><polygon fill="#181818" points="913.5,365.8203,923.5,369.8203,913.5,373.8203,917.5,369.8203" style="stroke:#181818;stroke-width:1.0;"/><line style="stroke:#181818;stroke-width:1.0;" x1="575.5" x2="919.5" y1="369.8203" y2="369.8203"/><text fill="#000000" font-family="sans-serif" font-size="13" lengthAdjust="spacing" textLength="326" x="582.5" y="364.7544">powerlog.exe -file save_file_name -cmd command</text><rect fill="#E2E2F0" height="30.2969" rx="2.5" ry="2.5" style="stroke:#181818;stroke-width:0.5;" width="152" x="925.5" y="348.6875"/><text fill="#000000" font-family="sans-serif" font-size="14" lengthAdjust="spacing" textLength="138" x="932.5" y="368.6826">Intel Power Gadget</text><polygon fill="#181818" points="1380.5,407.1172,1390.5,411.1172,1380.5,415.1172,1384.5,411.1172" style="stroke:#181818;stroke-width:1.0;"/><line style="stroke:#181818;stroke-width:1.0;" x1="1006.5" x2="1386.5" y1="411.1172" y2="411.1172"/><text fill="#000000" font-family="sans-serif" font-size="13" lengthAdjust="spacing" textLength="110" x="1013.5" y="406.0513">inicia a execução</text><rect fill="#E2E2F0" height="30.2969" rx="2.5" ry="2.5" style="stroke:#181818;stroke-width:0.5;" width="152" x="1392.5" y="389.9844"/><text fill="#000000" font-family="sans-serif" font-size="14" lengthAdjust="spacing" textLength="138" x="1399.5" y="409.9795">Modelo de Previsão</text><line style="stroke:#181818;stroke-width:1.0;" x1="1473.5" x2="1515.5" y1="452.4141" y2="452.4141"/><line style="stroke:#181818;stroke-width:1.0;" x1="1515.5" x2="1515.5" y1="452.4141" y2="465.4141"/><line style="stroke:#181818;stroke-width:1.0;" x1="1474.5" x2="1515.5" y1="465.4141" y2="465.4141"/><polygon fill="#181818" points="1484.5,461.4141,1474.5,465.4141,1484.5,469.4141,1480.5,465.4141" style="stroke:#181818;stroke-width:1.0;"/><text fill="#000000" font-family="sans-serif" font-size="13" lengthAdjust="spacing" textLength="106" x="1480.5" y="447.3481">pid = os.getpid()</text><line style="stroke:#181818;stroke-width:1.0;" x1="1473.5" x2="1515.5" y1="494.5469" y2="494.5469"/><line style="stroke:#181818;stroke-width:1.0;" x1="1515.5" x2="1515.5" y1="494.5469" y2="507.5469"/><line style="stroke:#181818;stroke-width:1.0;" x1="1474.5" x2="1515.5" y1="507.5469" y2="507.5469"/><polygon fill="#181818" points="1484.5,503.5469,1474.5,507.5469,1484.5,511.5469,1480.5,507.5469" style="stroke:#181818;stroke-width:1.0;"/><text fill="#000000" font-family="sans-serif" font-size="13" lengthAdjust="spacing" textLength="95" x="1480.5" y="489.481">conn.send(pid)</text><polygon fill="#181818" points="402.5,532.6797,392.5,536.6797,402.5,540.6797,398.5,536.6797" style="stroke:#181818;stroke-width:1.0;"/><line style="stroke:#181818;stroke-width:1.0;stroke-dasharray:2.0,2.0;" x1="396.5" x2="1462.5" y1="536.6797" y2="536.6797"/><text fill="#000000" font-family="sans-serif" font-size="13" lengthAdjust="spacing" textLength="19" x="408.5" y="531.6138">pid</text><path d="M344.5,551.6797 L422.5,551.6797 L422.5,558.8125 L412.5,568.8125 L344.5,568.8125 L344.5,551.6797 " fill="#EEEEEE" style="stroke:#000000;stroke-width:1.5;"/><rect fill="none" height="59.2656" style="stroke:#000000;stroke-width:1.5;" width="226" x="344.5" y="551.6797"/><text fill="#000000" font-family="sans-serif" font-size="13" font-weight="bold" lengthAdjust="spacing" textLength="33" x="359.5" y="564.7466">loop</text><line style="stroke:#181818;stroke-width:1.0;" x1="391.5" x2="433.5" y1="589.9453" y2="589.9453"/><line style="stroke:#181818;stroke-width:1.0;" x1="433.5" x2="433.5" y1="589.9453" y2="602.9453"/><line style="stroke:#181818;stroke-width:1.0;" x1="392.5" x2="433.5" y1="602.9453" y2="602.9453"/><polygon fill="#181818" points="402.5,598.9453,392.5,602.9453,402.5,606.9453,398.5,602.9453" style="stroke:#181818;stroke-width:1.0;"/><text fill="#000000" font-family="sans-serif" font-size="13" lengthAdjust="spacing" textLength="160" x="398.5" y="584.8794">get_cpu_percentage(pid)</text><polygon fill="#181818" points="374.5,635.0781,384.5,639.0781,374.5,643.0781,378.5,639.0781" style="stroke:#181818;stroke-width:1.0;"/><line style="stroke:#181818;stroke-width:1.0;" x1="34.5" x2="380.5" y1="639.0781" y2="639.0781"/><text fill="#000000" font-family="sans-serif" font-size="13" lengthAdjust="spacing" textLength="32" x="41.5" y="634.0122">join()</text><polygon fill="#181818" points="553.5,664.2109,563.5,668.2109,553.5,672.2109,557.5,668.2109" style="stroke:#181818;stroke-width:1.0;"/><line style="stroke:#181818;stroke-width:1.0;" x1="34.5" x2="559.5" y1="668.2109" y2="668.2109"/><text fill="#000000" font-family="sans-serif" font-size="13" lengthAdjust="spacing" textLength="133" x="41.5" y="663.145">kill_process(gpu_pid)</text><polygon fill="#181818" points="1229,693.3438,1239,697.3438,1229,701.3438,1233,697.3438" style="stroke:#181818;stroke-width:1.0;"/><line style="stroke:#181818;stroke-width:1.0;" x1="570.5" x2="1235" y1="697.3438" y2="697.3438"/><text fill="#000000" font-family="sans-serif" font-size="13" lengthAdjust="spacing" textLength="77" x="577.5" y="692.2778">kill(SEGKILL)</text><line style="stroke:#181818;stroke-width:1.0;" x1="34.5" x2="76.5" y1="726.4766" y2="726.4766"/><line style="stroke:#181818;stroke-width:1.0;" x1="76.5" x2="76.5" y1="726.4766" y2="739.4766"/><line style="stroke:#181818;stroke-width:1.0;" x1="35.5" x2="76.5" y1="739.4766" y2="739.4766"/><polygon fill="#181818" points="45.5,735.4766,35.5,739.4766,45.5,743.4766,41.5,739.4766" style="stroke:#181818;stroke-width:1.0;"/><text fill="#000000" font-family="sans-serif" font-size="13" lengthAdjust="spacing" textLength="244" x="41.5" y="721.4106">estimate_process_cpu_consumption()</text><line style="stroke:#181818;stroke-width:1.0;" x1="34.5" x2="76.5" y1="768.6094" y2="768.6094"/><line style="stroke:#181818;stroke-width:1.0;" x1="76.5" x2="76.5" y1="768.6094" y2="781.6094"/><line style="stroke:#181818;stroke-width:1.0;" x1="35.5" x2="76.5" y1="781.6094" y2="781.6094"/><polygon fill="#181818" points="45.5,777.6094,35.5,781.6094,45.5,785.6094,41.5,781.6094" style="stroke:#181818;stroke-width:1.0;"/><text fill="#000000" font-family="sans-serif" font-size="13" lengthAdjust="spacing" textLength="255" x="41.5" y="763.5435">estimate_process_dram_consumption()</text><line style="stroke:#181818;stroke-width:1.0;" x1="34.5" x2="76.5" y1="810.7422" y2="810.7422"/><line style="stroke:#181818;stroke-width:1.0;" x1="76.5" x2="76.5" y1="810.7422" y2="823.7422"/><line style="stroke:#181818;stroke-width:1.0;" x1="35.5" x2="76.5" y1="823.7422" y2="823.7422"/><polygon fill="#181818" points="45.5,819.7422,35.5,823.7422,45.5,827.7422,41.5,823.7422" style="stroke:#181818;stroke-width:1.0;"/><text fill="#000000" font-family="sans-serif" font-size="13" lengthAdjust="spacing" textLength="245" x="41.5" y="805.6763">estimate_process_gpu_consumption()</text><line style="stroke:#181818;stroke-width:1.0;" x1="34.5" x2="76.5" y1="852.875" y2="852.875"/><line style="stroke:#181818;stroke-width:1.0;" x1="76.5" x2="76.5" y1="852.875" y2="865.875"/><line style="stroke:#181818;stroke-width:1.0;" x1="35.5" x2="76.5" y1="865.875" y2="865.875"/><polygon fill="#181818" points="45.5,861.875,35.5,865.875,45.5,869.875,41.5,865.875" style="stroke:#181818;stroke-width:1.0;"/><text fill="#000000" font-family="sans-serif" font-size="13" lengthAdjust="spacing" textLength="261" x="41.5" y="847.8091">estimate_process_power_consumption()</text><line style="stroke:#181818;stroke-width:1.0;" x1="34.5" x2="76.5" y1="895.0078" y2="895.0078"/><line style="stroke:#181818;stroke-width:1.0;" x1="76.5" x2="76.5" y1="895.0078" y2="908.0078"/><line style="stroke:#181818;stroke-width:1.0;" x1="35.5" x2="76.5" y1="908.0078" y2="908.0078"/><polygon fill="#181818" points="45.5,904.0078,35.5,908.0078,45.5,912.0078,41.5,908.0078" style="stroke:#181818;stroke-width:1.0;"/><text fill="#000000" font-family="sans-serif" font-size="13" lengthAdjust="spacing" textLength="91" x="41.5" y="889.9419">save_results()</text><!--MD5=[567abbaf0f444384b1f552ab35db64eb]
@startuml
participant "main" as MAIN
participant "utils" as UTILS
participant "Thread" as THRD
participant "cmd" as CMD
participant "Intel Power Gadget" as IPG
participant "Nvidia System Management Interface" as SMI
participant "Modelo de Previsão" as MP
activate MAIN
MAIN -> UTILS: initialize_files()
activate UTILS
deactivate UTILS

MAIN -> THRD**: create(target = process_cpu_usage, args = 0)

MAIN-> CMD: gpu_pid = get_gpu_report(filename, interval)
activate CMD
CMD -> SMI** : nvidia-smi - -query-gpu=timestamp,power.draw -lms interval >> filename.csv
activate SMI
deactivate CMD

MAIN -> THRD: start()
activate THRD

loop while = TRUE
THRD -> THRD: pid = listener.recv()
end loop


MAIN -> CMD: get_process_report(save_file_name, command)
activate CMD
CMD -> IPG**: powerlog.exe -file save_file_name -cmd command
activate IPG
IPG -> MP**: inicia a execução
activate MP

MP -> MP: pid = os.getpid()
MP -> MP: conn.send(pid)

MP - -> THRD: pid
loop 
THRD -> THRD: get_cpu_percentage(pid)
end loop 

deactivate MP
deactivate IPG
deactivate CMD

MAIN -> THRD : join()
deactivate THRD

MAIN -> CMD: kill_process(gpu_pid)
activate CMD
CMD -> SMI: kill(SEGKILL)
deactivate SMI
deactivate CMD


MAIN -> MAIN: estimate_process_cpu_consumption()
MAIN -> MAIN: estimate_process_dram_consumption()
MAIN -> MAIN: estimate_process_gpu_consumption()

MAIN -> MAIN: estimate_process_power_consumption()

MAIN -> MAIN: save_results()
@enduml

PlantUML version 1.2022.6beta5(Unknown compile time)
(GPL source distribution)
Java Runtime: Java(TM) SE Runtime Environment
JVM: Java HotSpot(TM) 64-Bit Server VM
Default Encoding: UTF-8
Language: en
Country: US
--></g></svg>